<?xml version="1.0" standalone="no"?>
<!DOCTYPE svg PUBLIC "-//W3C//DTD SVG 1.1//EN" "http://www.w3.org/Graphics/SVG/1.1/DTD/svg11.dtd" >
<svg xmlns="http://www.w3.org/2000/svg">
<metadata>Generated by IcoMoon</metadata>
<defs>
<font id="fab-ingcons" horiz-adv-x="1024">
<font-face units-per-em="1024" ascent="960" descent="-64" />
<missing-glyph horiz-adv-x="1024" />
<glyph unicode="&#x20;" horiz-adv-x="512" d="" />
<glyph unicode="&#x2b;" glyph-name="toggle-plus" d="M0 512.001v-170.668h426.666v-426.666h170.668v426.666h426.666v170.668h-426.666v426.666h-170.668v-426.666z" />
<glyph unicode="&#x2d;" glyph-name="toggle-min" d="M0 512.001h1024v-170.668h-1024z" />
<glyph unicode="&#x2261;" glyph-name="menu" horiz-adv-x="1877" d="M0 955.733h1877.333v-170.667h-1877.333v170.667zM0 529.066h1877.333v-170.667h-1877.333v170.667zM0 102.4h1877.333v-170.667h-1877.333v170.667z" />
<glyph unicode="&#x25b8;" glyph-name="play" d="M768 448l-384-256v512z" />
<glyph unicode="&#x2709;" glyph-name="email" horiz-adv-x="1463" d="M1462.857 90.117c0-24.137-7.040-47.909-20.297-68.754l-0.091-0.183c-23.771-37.12-64.183-59.52-107.977-59.52h-1206.034c-43.886 0-84.389 22.4-108.16 59.703 0 0.183 0 0.366-0.091 0.366-13.257 20.663-20.206 44.251-20.206 68.389v691.749c0 21.577 5.577 42.423 16.549 62.080v0.091c22.857 40.869 65.737 66.286 111.909 66.286h1206.034c46.171 0 88.96-25.417 111.817-66.286v-0.091h0.091c10.971-19.657 16.457-40.503 16.457-62.080v-691.749zM1056.914 434.437l317.257 322.651c16.091 16.274 15.817 42.606-0.457 58.697-16.274 16-42.606 15.817-58.697-0.549l-583.589-593.554-583.589 593.554c-16.091 16.366-42.331 16.64-58.697 0.549-16.274-16.091-16.549-42.423-0.457-58.697l317.257-322.651-315.246-323.931c-15.909-16.457-15.543-42.697 0.914-58.789 4.023-3.931 8.777-6.766 13.714-8.777 0.914-0.366 1.92-0.366 2.926-0.549 3.931-1.189 7.954-2.469 12.251-2.469 0.091 0 0.183 0.183 0.366 0.183 2.743 0 5.303 1.097 7.954 1.646 2.651 0.457 5.303 0.457 7.68 1.554 5.029 2.011 9.783 5.211 13.714 9.326l313.966 322.56 237.623-241.737c7.863-7.863 18.469-12.251 29.623-12.434 11.063 0 21.76 4.571 29.531 12.434l237.714 241.737 313.966-322.743c8.046-8.229 19.017-12.526 29.714-12.526 10.514 0 20.846 3.931 28.891 11.794 16.457 15.909 16.823 42.331 0.914 58.789l-315.246 323.931z" />
<glyph unicode="&#x2713;" glyph-name="checkmark" d="M430.253 132.766c0 0-93.138 116.571-302.239 325.68l69.689 69.689 186.303-162.852c349.146 349.154 465.083 418.843 465.083 418.843s23.451 0 46.889-46.249c-209.741-186.302-465.723-605.109-465.723-605.109z" />
<glyph unicode="&#xe005;" glyph-name="toggle-plus-light" d="M0 455.11v-113.776h455.112v-455.112h113.776v455.112h455.112v113.776h-455.112v455.112h-113.776v-455.112z" />
<glyph unicode="&#xe006;" glyph-name="toggle-min-light" d="M0 455.11h1024v-113.776h-1024z" />
<glyph unicode="&#xe008;" glyph-name="speaker" d="M320 576v-254.080h156.16l227.84-193.92v640l-227.84-192z" />
<glyph unicode="&#xe00a;" glyph-name="slideshare" horiz-adv-x="1078" d="M1019.434 448.149c-35.406-43.49-102.774-97.31-206.147-139.677 109.661-372.248-266.554-431.308-260.791-240.505 0-3.069-0.15 78.222-0.299 151.429 178.227-15.794 198.363 127.925 198.512 129.871-0.973-4.865-42.517-146.788-225.011-93.717-0.15-79.27-0.374-191.102-0.374-187.584 5.764-190.802-370.077-131.743-261.015 240.505-103.149 42.367-170.592 96.187-205.923 139.677-18.189 26.873 1.273 55.092 30.915 34.508 3.967-2.919 8.009-5.464 12.051-8.159v384.674c0 53.446 40.047 96.561 89.45 96.561h696.589c49.404 0 89.675-43.116 89.675-96.561v-384.15c3.743 2.47 7.56 4.791 11.378 7.635 29.642 20.585 49.104-7.635 30.989-34.508v0zM684.912 425.019c-66.47 0-120.44 53.895-120.44 120.365 0 66.62 53.97 120.44 120.44 120.44 66.545 0 120.515-53.82 120.515-120.44 0-66.47-53.97-120.365-120.515-120.365v0zM406.306 425.019c-66.545 0-120.515 53.895-120.515 120.365 0 66.62 53.97 120.44 120.515 120.44 66.62 0 120.44-53.82 120.44-120.44 0-66.47-53.82-120.365-120.44-120.365v0zM849.965 904.233h-616.496c-61.829 0-79.046-21.109-79.046-88.702v-372.996c131.368-68.716 244.173-56.739 305.853-54.793 14.297 0.674 25.6-0.898 34.732-4.117 0.749-0.299 1.647-0.749 2.47-1.048 6.288-2.62 11.527-5.988 15.57-10.405 1.796-1.422 3.368-2.47 5.315-4.342 11.677-10.854 22.98-19.761 34.133-27.621 2.395 30.091 19.387 49.853 65.048 47.532 62.578-1.946 177.927-14.522 311.841 57.862v369.927c0 63.551-20.66 88.702-79.42 88.702v0z" />
<glyph unicode="&#xe00c;" glyph-name="rss" horiz-adv-x="970" d="M129.343 215.354c71.43 0 129.351-57.915 129.351-129.347s-57.921-129.347-129.351-129.347c-71.43 0-129.343 57.915-129.343 129.347s57.913 129.347 129.343 129.347zM646.737-43.341h-189.566c0 252.485-204.678 457.171-457.171 457.171v189.566c357.197 0 646.737-289.54 646.737-646.737zM776.092-43.341c0 428.621-347.472 776.084-776.092 776.084v194.021c535.774 0 970.105-434.339 970.105-970.105h-194.013z" />
<glyph unicode="&#xe00d;" glyph-name="linkedin" d="M966.024 309.436c0 172.986-37.496 306.045-239.468 306.045-97.153 0-162.326-53.205-188.882-103.791h-2.805v87.802h-191.406v-642.479h199.448v317.826c0 83.688 15.802 164.944 119.874 164.944 102.295 0 103.791-95.843 103.791-170.368v-312.403h199.448v352.424zM233.966 803.147c0 63.771-51.896 115.76-115.667 115.76-64.239 0-116.041-51.989-116.041-115.76 0-63.958 51.802-115.854 116.041-115.854 63.771 0 115.667 51.896 115.667 115.854v0zM18.155-42.987h200.009v642.385h-200.009v-642.385z" />
<glyph unicode="&#xe00e;" glyph-name="twitter" horiz-adv-x="1216" d="M1194.133 804.399c-42.8-18.933-88.8-31.867-137.6-37.6 49.6 29.6 87.6 76.4 105.6 132.4-46.4-27.6-97.733-47.467-152.133-58.133-43.733 46.533-105.733 75.467-174.8 75.467-132 0-239.2-107.067-239.2-239.2 0-18.8 2.133-37.067 6.133-54.667-198.8 10.133-375.2 105.2-493.067 250.267-20.667-35.6-32.533-76.533-32.533-120.533 0-82.933 42.267-156.133 106.533-199.2-39.333 1.467-76.133 12.133-108.4 30v-2.933c0-116.133 82.533-212.8 191.867-234.667-20-5.467-41.2-8.4-62.933-8.4-15.6 0-30.4 1.467-45.2 4.267 30.533-95.067 118.933-164.133 223.467-166.133-81.733-64.267-184.8-102.533-297.067-102.533-19.333 0-38.267 1.2-57.2 3.333 106-67.867 231.733-107.467 367.067-107.467 440 0 680.933 364.533 680.933 680.933 0 10.4-0.533 20.667-0.8 30.933 46.667 33.6 87.333 75.867 119.333 123.867v0z" />
<glyph unicode="&#xe00f;" glyph-name="facebook" d="M527.156 680.346c0-18.074 0-98.662 0-98.662h-66.356v-120.678h66.406v-358.606h136.396l0.002 358.604h91.546c0 0 8.55 57.856 12.748 121.14-11.93 0-103.732 0-103.732 0s0 70.196 0 82.484c0 12.34 14.9 28.928 29.542 28.928s45.67 0 74.342 0c0 16.384 0 73.164 0 125.644-38.298 0-81.818 0-101.068 0-143.154 0-139.826-120.78-139.826-138.854z" />
<glyph unicode="&#xe010;" glyph-name="googleplus" d="M448.461 523.52c-15.002-14.182-40.499-24.576-63.642-24.576-80.794 0-117.197 98.867-117.197 158.771 0 23.194 4.762 47.104 20.429 66.099 15.155 17.715 41.523 29.184 65.792 29.184 77.722 0 117.811-99.994 117.811-164.045 0-16.333-1.946-44.851-23.194-65.434zM523.52 236.595c0-55.706-47.872-96.768-137.882-96.768-100.198 0-165.12 45.568-165.12 109.056 0 63.283 60.314 84.531 80.742 91.904 39.578 12.339 90.061 14.234 98.611 14.234 9.318 0 13.875 0 21.299-1.229 71.424-47.718 102.349-72.038 102.349-117.197zM605.798 782.541h-192.87c-50.483 0-114.278-7.066-167.68-49.152-40.499-32.768-60.262-78.387-60.262-119.347 0-69.939 56.474-140.237 155.802-140.237 9.216 0 19.61 0.819 30.003 1.536-5.069-10.496-9.626-19.354-9.626-34.765 0-27.494 15.104-44.493 28.109-60.774-42.086-2.202-120.883-6.81-178.842-40.858-55.194-31.386-72.192-76.544-72.192-109.056 0-66.099 65.792-127.488 201.37-127.488 161.229 0 246.426 84.582 246.426 168.96 0 61.235-37.376 91.802-78.797 124.723l-33.587 25.088c-9.984 7.782-24.422 18.637-24.422 38.246 0 19.763 14.387 32.102 26.419 43.674 39.373 29.44 78.797 60.723 78.797 126.72 0 67.994-45.21 103.578-66.406 120.576h57.958l59.802 32.154zM768 716.8h51.2v-256h-51.2v256zM665.6 614.4h256v-51.2h-256v51.2z" />
<glyph unicode="&#xe600;" glyph-name="alert" horiz-adv-x="1117" d="M1103.93 25.359l-515.782 893.428c-12.323 21.434-47.581 21.434-59.939 0l-518.854-898.665c-6.179-10.717-6.179-23.948 0-34.665 6.214-10.682 17.594-17.245 29.952-17.245h1037.777c0.244-0.035 0.454 0 0.663 0 19.095 0 34.56 15.5 34.56 34.56 0 8.657-3.142 16.512-8.378 22.586zM530.828 274.086c-17.908 0-21.679 10.892-21.679 20.143l-12.183 342.842c0 15.604 9.076 24.401 24.82 24.401h72.82c15.814 0 24.82-8.797 24.82-24.052l-10.612-343.54c0-8.902-3.84-19.793-21.783-19.793h-56.204zM517.946 73.359c-16.198 0-25.553 9.041-25.553 24.751v78.999c0 15.709 9.356 24.785 25.553 24.785h79.732c22.9 0 26.321-15.569 26.321-24.785v-78.999c0-9.251-3.421-24.751-26.321-24.751h-79.732z" />
<glyph unicode="&#xe601;" glyph-name="alert-outline" horiz-adv-x="1280" d="M566.848 609.344v-139.584l31.040-256.832h55.68l30.336 256.832v139.584h-117.056zM569.472 60.544h111.744v107.968h-111.744v-107.968zM634.688 832l485.312-832h-960l474.688 832zM32-64h1186.752l-585.088 1024-601.664-1024z" />
<glyph unicode="&#xe602;" glyph-name="close" d="M43.109 824.006l423.32-402.553-0.040 79.467-463.034-441.207 75.685-79.429 504.756 480.961-504.834 480.068-75.605-79.505 39.753-37.803zM905.286 903.511l-465.081-442.266 504.756-480.961 75.685 79.429-463.034 441.207-0.040-79.467 463.072 440.356-75.605 79.505-39.753-37.803z" />
<glyph unicode="&#xe603;" glyph-name="youtube" d="M887.091 613.018c-9.062 71.168-51.661 114.995-115.149 114.995h-519.885c-63.488 0-106.035-46.234-114.995-114.995-8.96-68.864-9.062-97.946-9.062-153.958 0-56.064 0.051-79.104 9.062-150.374 8.96-71.27 51.507-115.098 114.995-115.098h519.885c63.642 0 106.035 46.387 115.149 115.098 8.909 68.659 8.909 97.741 8.909 154.061 0 55.603 0 79.002-8.909 150.272zM432.486 349.798v224.666l204.493-110.080-204.493-114.586z" />
<glyph unicode="&#xe604;" glyph-name="blog" d="M113.778 802.133v-512h170.667v-227.556l277.333 227.556h348.444v512h-796.444zM796.444 403.911h-568.889v56.889h568.889v-56.889zM796.444 631.467h-568.889v56.889h568.889v-56.889z" />
<glyph unicode="&#xe605;" glyph-name="file-audio" d="M513.434 750.080c-193.707 0-342.767-168.619-342.767-376.422v-159.13c0-44.066 37.137-81.408 81.408-81.408h72.499c16.043 0 36.727 12.971 36.727 29.082v188.484c0 16.145-20.343 29.082-36.352 29.082l-64.649 0.683c-7.68 0-14.985-1.399-21.948-3.482 1.741 172.066 114.039 306.039 273.237 306.039 156.74 0 274.091-137.114 275.831-306.722-7.27 2.458-14.609 4.164-22.221 4.164l-66.867-0.683c-15.667 0-38.366-12.937-38.366-29.082v-188.484c0-16.111 22.699-29.082 38.707-29.082h72.465c44.237 0 83.217 39.151 83.217 83.285v159.095c-0.034 204.322-150.357 374.579-340.924 374.579zM251.733 324.949l55.467 0.137v-130.219l-55.159-0.512c-12.527 0-22.255 9.796-22.255 21.982v86.665c0 12.22 9.728 21.948 21.948 21.948zM800.188 216.337c0-12.186-9.66-21.948-22.221-21.948h-61.167v130.219l61.167 0.375c9.353 0 22.221-16.384 22.221-31.71v-76.937z" />
<glyph unicode="&#xe606;" glyph-name="file-video" d="M511.966 753.8c-172.51 0-312.32-139.469-312.32-311.467 0-172.032 139.81-311.467 312.32-311.467 172.476 0 312.354 139.435 312.354 311.467s-139.878 311.467-312.354 311.467zM442.129 290.133v308.873l231.083-158.106-231.083-150.767z" />
<glyph unicode="&#xe607;" glyph-name="investor-media-app" horiz-adv-x="1621" d="M1570.635 897.4h-451.965v-94.984h329.587l-567.316-531.97-285.415 267.726c-9.537 8.849-22.287 13.932-35.84 13.932-13.352 0-26.303-4.989-35.74-13.932l-508.888-477.088 71.58-67.214 473.048 443.575 285.415-267.821c9.537-8.849 22.387-13.838 35.84-13.838s26.303 4.989 35.84 13.744l603.156 565.671-0.201-309.053h101.396l0.201 423.712c0 12.614-5.421 24.758-14.858 33.607-9.437 8.943-22.387 13.932-35.84 13.932z" />
<glyph unicode="&#xe608;" glyph-name="flickr" horiz-adv-x="2048" d="M1579.567 4.739c-258.533 0-468.602 210.069-468.602 468.264 0 258.364 210.069 468.602 468.602 468.602 258.195 0 468.433-210.237 468.433-468.602 0-258.195-210.237-468.264-468.433-468.264v0zM468.433 4.739c-258.364 0-468.433 210.069-468.433 468.264 0 258.364 210.069 468.602 468.433 468.602s468.433-210.237 468.433-468.602c0-258.195-210.069-468.264-468.433-468.264zM1579.567 808.201c-185.077 0-335.367-150.29-335.367-335.198 0-184.739 150.29-335.029 335.367-335.029 184.739 0 335.029 150.29 335.029 335.029 0 184.908-150.29 335.198-335.029 335.198z" />
<glyph unicode="&#xe609;" glyph-name="close-thin" horiz-adv-x="1063" d="M60.322-35.981l-13.928-13.921 27.841-27.857 959.338 958.81-27.841 27.857-945.409-944.89zM975.178-63.838l13.928-13.921 27.841 27.857-959.338 958.81-27.841-27.857 945.409-944.89z" />
<glyph unicode="&#xe60a;" glyph-name="book" horiz-adv-x="1186" d="M631.359 108.145v579.877c0 85.249 106.572 96.92 151.93 96.92 93.108 0 166.725-13.95 232.458-28.083v-629.020c-64.582 12.947-138.288 23.341-231.306 23.341-57.849 0-107.724-8.024-153.082-43.036zM401.205 151.18c-93.019 0-166.725-10.394-231.306-23.341v629.020c65.733 14.133 139.439 28.083 232.458 28.083 45.357 0 151.93-11.671 151.93-96.92v-579.877c-45.357 35.012-95.233 43.036-153.082 43.036zM1050.917 826.974c-86.108 19.876-176.913 31.547-267.627 31.547-86.108 0-151.93-24.526-190.467-67.745-38.536 43.217-104.358 67.745-190.467 67.745-108.876 0-192.769-16.411-267.627-31.547-23.831-4.65-41.902-26.898-41.902-52.518v-672.147c0-29.267 23.742-54.889 50.939-54.889 4.607 0 6.821 0 11.34 1.093 69.188 15.135 146.349 28.083 246.1 28.083 74.857 0 112.242-15.135 151.93-61.817 10.188-12.856 23.831-19.968 39.687-19.968s29.5 7.112 39.776 19.968c38.448 45.496 76.983 61.817 151.842 61.817 99.751 0 177.001-12.947 244.949-28.083 2.215 0 9.036-1.093 10.188-1.093 29.5 0 53.33 24.526 53.33 54.889v672.147c0 25.62-17.009 46.682-41.991 52.518z" />
<glyph unicode="&#xe60b;" glyph-name="angle-down, arrow-down" d="M500.083 162.615h-0.038c-10.138 0-19.93 4.070-27.149 11.251l-472.896 473.51 54.336 54.298 445.747-446.323 456.461 456.115 54.298-54.298-483.61-483.302c-7.181-7.181-16.973-11.251-27.149-11.251z" />
<glyph unicode="&#xe60c;" glyph-name="angle-left, arrow-left" d="M714.74-44.358l-460.251 460.581c-6.875 6.875-10.679 16.165-10.679 25.856s3.84 19.017 10.679 25.856l450.962 450.414 51.712-51.749-425.070-424.558 434.395-434.725-51.749-51.675z" />
<glyph unicode="&#xe60d;" glyph-name="angle-right, arrow-right" d="M304.847-44.358l-51.712 51.712 425.070 424.558-434.395 434.725 51.749 51.712 460.251-460.581c6.875-6.875 10.679-16.165 10.679-25.893 0-9.655-3.84-18.981-10.679-25.856l-450.962-450.377z" />
<glyph unicode="&#xe60e;" glyph-name="angle-up, arrow-up" d="M54.259 173.623l-54.259 54.374 483.61 483.264c7.181 7.181 16.973 11.213 27.149 11.213h0.038c10.138 0 19.93-4.032 27.149-11.251l472.896-473.51-54.336-54.259-445.786 446.323-456.461-456.154z" />
<glyph unicode="&#xe60f;" glyph-name="info" horiz-adv-x="439" d="M135.714 862.429c0 21.905 7.738 40.952 23.214 57.143s35.119 24.286 58.929 24.286c22.381 0 41.667-7.857 57.857-23.571s24.286-35 24.286-57.857c0-22.857-8.095-42.262-24.286-58.214s-35.476-23.929-57.857-23.929c-22.857 0-42.262 8.095-58.214 24.286s-23.929 35.476-23.929 57.857v0zM155 56.714v450h-107.857v120.714h243.571v-570.714h106.429v-120.714h-350v120.714h107.857z" />
<glyph unicode="&#xe610;" glyph-name="arrow-right-up" d="M985.121 947.646c-7.928 7.895-18.663 12.354-29.861 12.354l-687.633-0.033v-84.43l585.728 0.033-853.355-853.388 59.689-59.689 853.355 853.322v-577.14h84.463v679.11c0 11.198-4.459 21.933-12.387 29.861z" />
<glyph unicode="&#xe611;" glyph-name="clock" horiz-adv-x="998" d="M499.021 940.058c-274.944 0-498.611-223.693-498.611-498.662s223.667-498.637 498.611-498.637c274.944 0 498.662 223.667 498.662 498.637s-223.718 498.662-498.662 498.662v0zM499.021 11.52c-237.005 0-429.824 192.845-429.824 429.875s192.819 429.875 429.824 429.875c237.030 0 429.85-192.845 429.85-429.875s-192.819-429.875-429.85-429.875v0zM496.589 491.494l-155.699 155.699-48.614-48.64 204.339-204.314 277.888 277.862-48.666 48.64-229.248-229.248z" />
<glyph unicode="&#xe612;" glyph-name="marker" horiz-adv-x="683" d="M334.677 936.911c-181.541 0-329.24-147.675-329.24-329.192 0-52.151 11.971-102.181 35.133-147.895l222.184-473.502c12.727-28.306 40.96-46.592 71.924-46.592 30.988 0 59.197 18.31 71.68 46.129l221.915 473.088c23.601 46.494 35.572 96.549 35.572 148.773 0 181.516-147.675 329.192-329.167 329.192v0zM572.27 486.302l-222.549-474.478c-5.339-11.849-24.576-12.361-30.33 0.512l-222.818 474.819c-19.115 37.742-28.818 78.287-28.818 120.564 0 147.139 119.735 266.85 266.923 266.85 147.139 0 266.85-119.71 266.85-266.85 0-42.325-9.704-82.871-29.257-121.417v0zM334.677 790.747c-100.937 0-183.052-82.115-183.052-183.028 0-100.962 82.115-183.077 183.052-183.077 100.888 0 182.979 82.115 182.979 183.077 0 100.913-82.091 183.028-182.979 183.028v0zM334.677 486.985c-66.584 0-120.734 54.15-120.734 120.734 0 66.536 54.15 120.686 120.734 120.686 66.536 0 120.661-54.15 120.661-120.686 0-66.584-54.126-120.734-120.661-120.734v0z" />
<glyph unicode="&#xe613;" glyph-name="looking-glass" d="M1012.087 78.836l-379.829 379.904c27.124 48.553 42.708 104.373 42.708 163.84 0 186.043-151.427 337.42-337.545 337.42-186.043 0-337.42-151.377-337.42-337.42 0-186.093 151.377-337.47 337.42-337.47 59.467 0 115.287 15.585 163.865 42.683l379.879-379.904c5.969-5.994 14.086-9.341 22.553-9.341s16.584 3.347 22.553 9.341l85.816 85.816c12.463 12.463 12.463 32.668 0 45.131v0zM63.838 622.58c0 150.853 122.73 273.608 273.583 273.608 150.928 0 273.683-122.755 273.683-273.608 0-150.878-122.755-273.633-273.683-273.633-150.853 0-273.583 122.755-273.583 273.633v0zM903.717 15.622l-349.059 349.059c14.686 12.388 28.297 26 40.685 40.685l349.034-349.084-40.66-40.66z" />
<glyph unicode="&#xe614;" glyph-name="checkmark2" horiz-adv-x="1182" d="M1114.427 852.238c-34.028 67.111-68.057 67.111-68.057 67.111s-168.251-101.14-674.895-607.783l-270.336 236.308-101.14-101.14c303.419-303.419 438.587-472.615 438.587-472.615s371.476 607.783 675.84 878.119v0z" />
<glyph unicode="&#xe615;" glyph-name="award" horiz-adv-x="898" d="M703.56 528.394c71.177 28.924 191.003 142.282 191.003 395.516 0 14.893-12.072 26.947-26.947 26.947h-181.356c-14.875 0-26.947-12.054-26.947-26.947v-57.344h-423.541v57.344c0 14.893-12.072 26.947-26.947 26.947h-181.877c-14.875 0-26.947-12.054-26.947-26.947 0-253.934 120.473-367.203 191.578-395.731 28.42-103.568 117.814-182.074 227.148-193.931v-137.144h-83.231c-11.084 0-21.055-6.809-25.097-17.121l-77.788-198.674c-3.234-8.3-2.192-17.66 2.838-25.025 5.012-7.348 13.348-11.749 22.259-11.749h375.88c8.911 0 17.246 4.401 22.259 11.749 5.012 7.366 6.072 16.725 2.82 25.025l-77.77 198.674c-4.042 10.312-13.995 17.121-25.079 17.121h-83.196v136.785c111.095 10.456 202.267 89.663 230.939 194.506v0zM713.207 896.962h126.976c-6.557-174.799-76.333-264.264-127.102-301.397 0 0.916 0.126 1.832 0.126 2.749v298.649zM54.38 896.962h127.497v-298.649c0-1.060 0.144-2.084 0.162-3.162-50.805 36.9-121.048 126.383-127.659 301.811v0zM235.772 598.314v214.357h423.541v-214.357c0-116.79-94.998-211.806-211.77-211.806s-211.77 95.016-211.77 211.806v0zM594.082-1.571h-296.888l56.679 144.779h183.548l56.661-144.779z" />
<glyph unicode="&#xe616;" glyph-name="calendar" horiz-adv-x="948" d="M358.533 70.577c-0.346-0.013-0.694-0.019-1.043-0.019-0.362 0-0.722 0.006-1.080 0.019h-2.883l-0.104 0.267c-13.643 1.953-24.13 13.668-24.13 27.855 0 6.752 2.364 12.95 6.312 17.808l-0.073 0.188 166.514 174.308c12.838 12.421 23.040 24.974 30.625 37.585 7.642 12.648 11.359 27.117 11.359 43.463 0 19.437-6.277 34.873-18.944 46.345-12.61 11.454-28.274 17.199-46.914 17.199-19.816 0-35.783-6.713-47.844-20.101-12.041-13.426-19.475-30.246-22.149-50.46l-0.8 0.123c-2.755-15.931-16.638-28.056-33.371-28.056-18.735 0-33.906 15.17-33.906 33.868 0 1.527 0.101 3.031 0.296 4.504l-0.429 0.066c1.953 17.105 6.77 32.844 14.583 47.237 7.756 14.374 17.673 26.814 29.734 37.319 12.041 10.487 26.131 18.735 42.268 24.785 16.156 6.011 33.716 9.026 52.774 9.026 17.863 0 35.081-2.541 51.636-7.585 16.479-5.044 31.156-12.743 43.994-23.021 12.819-10.297 23.002-22.945 30.606-37.907 7.585-14.981 11.359-32.351 11.359-52.186 0-13.217-1.745-25.562-5.215-37.035-3.489-11.454-8.287-22.244-14.336-32.351-6.011-10.107-12.99-19.74-20.954-28.881s-16.631-17.977-25.941-26.51l-108.316-113.721 157.544-0.057c17.549-0.102 31.782-14.361 31.782-31.952 0-17.61-14.233-31.869-31.782-31.971l-241.171-0.152zM73.159 626.458h808.827v126.635c0 21.959-17.882 39.822-39.841 39.822h-59.62v-87.95h-56.889v87.95h-463.303v-87.95h-56.889v87.95h-92.444c-21.959 0-39.841-17.863-39.841-39.822v-126.635zM73.159 569.569v-545.621c0-21.978 17.882-39.841 39.841-39.841h729.145c21.959 0 39.841 17.863 39.841 39.841v545.621h-808.827zM262.334 849.803h463.303v83.001h56.889v-83.001h59.62c53.343 0 96.73-43.387 96.73-96.711v-729.145c0-53.324-43.387-96.711-96.73-96.711h-729.145c-53.343 0-96.73 43.387-96.73 96.711v729.145c0 53.324 43.387 96.711 96.73 96.711h92.444v83.001h56.889v-83.001z" />
<glyph unicode="&#xe617;" glyph-name="clock2" d="M504.202 889.47c-244.158 0-442.867-198.656-442.867-442.841s198.709-442.867 442.867-442.867c244.211 0 442.867 198.682 442.867 442.867s-198.656 442.841-442.867 442.841zM504.202-57.599c-278.029 0-504.202 226.199-504.202 504.228s226.173 504.228 504.202 504.228c278.082 0 504.254-226.199 504.254-504.228s-226.173-504.228-504.254-504.228zM569.397 472.334c3.098-8.008 4.989-16.62 4.989-25.705 0-38.754-31.403-70.157-70.183-70.157-38.728 0-70.157 31.403-70.157 70.157 0 7.667 1.575 15.019 3.886 21.898l-138.371 138.397 43.402 43.376 137.872-137.846c7.326 2.626 15.124 4.332 23.368 4.332 6.879 0 13.417-1.287 19.666-3.151l211.784 211.705 43.349-43.402-209.605-209.605z" />
<glyph unicode="&#xe618;" glyph-name="employees" horiz-adv-x="1219" d="M344.11 407.709c-42.505 0-77.061 34.593-77.061 77.117s34.555 77.135 77.061 77.135c42.543 0 77.154-34.611 77.154-77.135s-34.611-77.117-77.154-77.117zM232.643 155.842v10.985l-0.54 108.861c0 61.757 50.25 112.044 112.007 112.044 61.775 0 112.026-50.288 112.026-112.044v-119.845h-223.493zM1100.958 775.66h-367.765v52.112c0 66.392-54.011 120.385-120.404 120.385-66.374 0-120.367-53.993-120.367-120.385v-52.112h-367.839c-52.931 0-95.995-43.064-95.995-95.995v-639.888c0-52.931 43.064-96.014 95.995-96.014h976.375c52.931 0 95.995 43.082 95.995 96.014v639.888c0 52.931-43.064 95.995-95.995 95.995v0zM548.277 827.772c0 35.579 28.933 64.531 64.512 64.531 35.598 0 64.549-28.951 64.549-64.531v-154.345h-129.061v154.345zM1141.099 39.776c0-22.137-18.004-40.159-40.141-40.159h-976.375c-22.137 0-40.141 18.022-40.141 40.159v639.888c0 22.137 18.004 40.141 40.141 40.141h367.839v-74.305c0-15.416 12.493-27.927 27.927-27.927h184.916c15.416 0 27.927 12.511 27.927 27.927v74.305h367.765c22.137 0 40.141-18.004 40.141-40.141v-639.888zM538.111 320.967h511.181v-55.855h-511.181v55.855zM538.111 215.942h511.181v-55.855h-511.181v55.855z" />
<glyph unicode="&#xe619;" glyph-name="people" horiz-adv-x="1032" d="M840.083 780.889c-46.222 0-83.826 37.636-83.826 83.873 0 46.222 37.604 83.826 83.826 83.826 46.238 0 83.858-37.604 83.858-83.826 0-46.238-37.62-83.873-83.858-83.873v0zM840.083 901.327c-20.165 0-36.565-16.4-36.565-36.565 0-20.196 16.4-36.612 36.565-36.612 20.182 0 36.596 16.416 36.596 36.612 0 20.165-16.416 36.565-36.596 36.565v0zM876.443 285.808h47.262v-346.159h-47.262v346.159zM757.060 285.808h47.262v-346.159h-47.262v346.159zM993.887 285.808h-47.262v313.785c0 58.762-47.797 106.559-106.543 106.559-58.762 0-106.576-47.797-106.576-106.559v-313.785h-47.262v313.785c0 84.818 69.018 153.821 153.836 153.821 84.803 0 153.805-69.002 153.805-153.821v-313.785zM515.538 285.572h47.262v-345.939h-47.262v345.939zM396.249 285.572h47.262v-345.939h-47.262v345.939zM479.178 948.147c-38.077 0-69.931-25.71-80.077-60.574-43.544-2.080-78.407-37.809-78.407-81.794v-49.782h47.262v49.782c0 18.007 13.8 32.705 31.382 34.548 10.382-34.469 42.047-59.802 79.84-59.802 46.253 0 83.873 37.589 83.873 83.81 0 46.206-37.62 83.81-83.873 83.81v0zM479.178 827.772c-20.118 0-36.502 16.4-36.502 36.565 0 20.149 16.384 36.549 36.502 36.549 20.182 0 36.612-16.4 36.612-36.549 0-20.165-16.431-36.565-36.612-36.565v0zM143.904 478.242c-46.206 0-83.779 37.62-83.779 83.842 0 46.206 37.573 83.795 83.779 83.795 46.238 0 83.858-37.589 83.858-83.795 0-46.222-37.62-83.842-83.858-83.842v0zM143.904 598.617c-20.133 0-36.517-16.384-36.517-36.533 0-20.165 16.384-36.58 36.517-36.58 20.182 0 36.596 16.416 36.596 36.58 0 20.149-16.416 36.533-36.596 36.533v0zM157.484 153.933h47.262v-214.284h-47.262v214.284zM83.551 153.933h47.262v-214.284h-47.262v214.284zM637.583 285.572h48.065l-64.654 350.775c-13.154 67.647-72.799 116.72-141.816 116.72-68.97 0-128.599-49.073-141.863-117.004l-52.618-289.556h-0.016l-6.491-35.872-2.914-16.037-21.205-0.047v47.75c0 60.731-49.388 110.119-110.088 110.119-60.731 0-110.119-49.388-110.119-110.119v-188.983h47.262v188.983c0 34.658 28.199 62.858 62.858 62.858 34.643 0 62.826-28.199 62.826-62.858v-71.444c0-6.27 2.489-12.288 6.947-16.731 4.427-4.427 10.429-6.9 16.683-6.9h0.062l64.607 0.158c11.327 0.032 21.016 8.113 23.111 19.235v0.032c0.016 0.064 0.047 0.11 0.062 0.158l5.829 32.232 59.644 328.263c8.885 45.497 49.010 78.501 95.421 78.501 46.442 0 86.582-33.004 95.374-78.249l63.031-341.984z" />
<glyph unicode="&#xe61a;" glyph-name="euro-bigeuro" horiz-adv-x="2146" d="M1095.067 484.494l-241.054 243.871-41.402-41.893 220.425-223.042-220.425-223.024 41.402-41.893 241.072 243.907c11.45 11.596 11.45 30.442-0.019 42.075zM1363.528 390.093v-59.341h62.049l0.255-8.851c3.18-117.228 99.998-212.592 215.791-212.592 116.156 0 211.211 93.237 215.936 209.648h-58.524c-4.671-83.696-73.499-150.325-157.413-150.325-84.459 0-153.414 67.047-157.050 152.632l-0.382 9.488h169.99v59.341h-170.208v94.128h170.208v59.323h-169.971l0.363 9.469c3.545 85.695 72.519 152.815 157.050 152.815 83.913 0 152.742-66.647 157.413-150.325h58.524c-4.726 116.428-99.78 209.665-215.936 209.665-115.865 0-212.664-95.455-215.791-212.773l-0.236-8.851h-62.067v-59.323h61.976v-94.128h-61.976zM265.292 387.44c5.452-72.717 65.757-129.678 137.275-129.678 73.354 0 133.586 58.050 138.22 131.168h-52.889c-4.507-43.547-41.057-77.607-85.331-77.607-42.039 0-78.352 31.878-84.477 74.136l-1.508 10.396h80.37v33.678h-80.042v67.865h80.042v33.605h-80.37l1.492 10.378c6.107 42.293 42.42 74.19 84.495 74.19 44.274 0 80.805-34.006 85.331-77.498h52.889c-4.653 73.044-64.866 131.059-138.22 131.059-71.646 0-131.931-56.978-137.275-129.714l-0.599-8.415h-34.841v-33.605h34.314v-67.865h-34.314v-33.678h34.823l0.618-8.415zM1641.622 934.141c-270.806 0-491.122-222.897-491.122-496.865 0-274.023 220.316-496.975 491.122-496.975 270.787 0 491.104 222.951 491.104 496.975 0 273.968-220.316 496.865-491.104 496.865v0zM1641.622-0.339c-238.546 0-432.635 196.326-432.635 437.615 0 241.254 194.090 437.506 432.635 437.506 238.563 0 432.653-196.252 432.653-437.506 0-241.29-194.090-437.615-432.653-437.615v0zM399.332 853.009c-212.265 0-384.963-174.788-384.963-389.615 0-214.81 172.698-389.542 384.963-389.542 212.282 0 384.98 174.733 384.98 389.542 0 214.827-172.698 389.615-384.98 389.615v0zM399.332 133.246c-180.041 0-326.494 148.089-326.494 330.147 0 182.112 146.453 330.275 326.494 330.275s326.512-148.161 326.512-330.275c0-182.059-146.472-330.147-326.512-330.147v0z" />
<glyph unicode="&#xe61b;" glyph-name="euro" d="M520.316 941.2c-277.451 0-503.172-225.721-503.172-503.172s225.721-503.172 503.172-503.172c277.451 0 503.172 225.721 503.172 503.172s-225.721 503.172-503.172 503.172v0zM520.316-12.18c-248.249 0-450.207 201.975-450.207 450.207 0 248.249 201.958 450.207 450.207 450.207 248.232 0 450.207-201.958 450.207-450.207 0-248.232-201.975-450.207-450.207-450.207v0zM543.956 717.138c94.667 0 171.661-77.012 171.661-171.661h52.966c0 123.869-100.758 224.627-224.627 224.627-123.833 0-224.574-100.758-224.574-224.627v-8.404h-89.282v-52.966h89.282v-92.142h-89.282v-52.966h89.282v-8.422c0-123.851 100.74-224.627 224.574-224.627 123.869 0 224.627 100.776 224.627 224.627h-52.966c0-94.649-76.994-171.661-171.661-171.661-94.632 0-171.608 77.012-171.608 171.661v8.422h196.59v52.966h-196.59v92.142h196.59v52.966h-196.59v8.404c0 94.649 76.977 171.661 171.608 171.661z" />
<glyph unicode="&#xe61c;" glyph-name="moneybag" horiz-adv-x="808" d="M91.033 312.948c0.638 0.662 1.277 1.375 1.841 2.088l309.444 396.639 309.493-396.639c0.589-0.713 1.178-1.426 1.817-2.063 26.294-35.984 40.657-80.066 40.657-125.575 0-114.573-89.858-207.78-200.313-207.78h-303.33c-110.431 0-200.24 93.207-200.24 207.78 0 45.483 14.338 89.565 40.632 125.549v0zM318.967 898.141h166.752l-83.401-106.857-83.351 106.857zM250.641-70.449h303.33c137.070 0 248.557 115.668 248.557 257.847 0 62.087-21.507 122.035-60.592 168.817-0.344 0.382-0.737 0.815-1.080 1.222l-307.504 394.042 121.676 155.956c5.868 7.487 7.046 17.801 3.020 26.511-4.026 8.684-12.472 14.261-21.752 14.261h-267.903c-9.305 0-17.8-5.577-21.801-14.261-4.002-8.71-2.823-19.023 3.020-26.511l121.7-155.956-307.48-394.042c-0.368-0.407-0.687-0.84-1.080-1.222-39.11-46.782-60.642-106.755-60.642-168.817 0-142.179 111.487-257.847 248.532-257.847v0zM412.753 110.312c59.365 0 107.657 50.092 107.657 111.721h-48.268c0-33.998-26.663-61.68-59.389-61.68-29.633 0-54.086 22.665-58.555 52.104h68.179v37.537h-69.112v44.184h69.112v37.512h-68.179c4.468 29.465 28.921 52.13 58.555 52.13 32.727 0 59.389-27.657 59.389-61.68h48.268c0 61.629-48.292 111.747-107.657 111.747-56.247 0-102.084-45.076-106.822-102.197h-21.679v-37.512h20.746v-44.184h-20.746v-37.537h21.679c4.738-57.096 50.576-102.146 106.822-102.146z" />
<glyph unicode="&#xe61d;" glyph-name="pig" horiz-adv-x="1405" d="M1076.518 596.289c-27.407 0-49.807-22.592-49.807-50.382 0-27.857 22.4-50.405 49.807-50.405 27.517 0 49.807 22.548 49.807 50.405 0 27.79-22.29 50.382-49.807 50.382zM883.944-68.345c-14.845 0-29.208 4.798-42.714 14.262-13.462 9.219-28.505 24.947-37.070 44.607-42.736-7.708-111.407-18.327-165.914-18.327-53.848 0-122.651 10.618-164.398 18.083-8.587-25.058-26.704-45.606-49.719-54.425-43.307-15.839-92.718 21.726-109.365 36.698l-177.224 176.96c-89.732 83.371-137.189 184.202-137.189 291.52 0 258.598 286.171 468.991 637.895 468.991 69.484 0 162.751-17.349 195.495-23.903l15.373 17.905c13.045 15.106 35.796 34.055 57.34 42.474 21.368 8.153 45.503 4.51 66.146-9.774 20.358-14.062 44.185-42.763 44.185-77.306v-27.59l315.533-251.601c8.433-6.775 16.778-12.218 19.304-13.751 39.002-18.793 43.263-72.197 43.263-94.545v-63.133c0-11.552-0.966-40.519-9.685-60.023-8.104-18.26-22.576-28.235-37.904-38.786-5.205-3.443-9.421-6.242-12.496-8.841l-373.18-330.884c-16.075-14.040-38.278-28.057-54.199-34.277-7.752-2.932-15.526-4.332-23.476-4.332v0zM863.059 70.162v-47.050c-0.044-5.487 6.676-16.239 15.395-22.192 5.864-4.132 5.622-2.599 5.622-2.599 7.511 2.932 23.344 12.662 34.325 22.237l373.465 331.106c5.336 4.576 11.925 9.197 18.513 13.506 5.907 4.087 13.462 9.286 15.021 11.44 1.581 3.732 3.602 18.127 3.602 32.189v63.133c0 17.883-4.238 32.233-7.159 35.321-5.732 2.71-18.93 11.507-30.372 20.682l-340.568 271.683v59.801c0 5.376-6.764 16.261-15.482 22.259-2.657 1.844-4.59 2.488-5.534 2.488-8.367-3.221-22.751-14.239-31.075-23.903l-21.258-24.769c-10.146-11.863-27.758-17.283-39.815-17.283l-8.916 0.933c-11.859 2.466-118.435 24.236-190.576 24.236-315.401 0-572.013-180.492-572.013-402.348 0-78.684 31.931-153.924 92.675-219.256l0.066 0.067 24.355-23.769 175.884-176.338c15.702-13.573 33.336-23.414 41.462-23.414 5.293 1.844 12.781 11.863 12.781 24.769v47.095l39.485-8.108c18.93-3.865 116.787-23.236 185.305-23.236 68.144 0 166.353 19.371 185.349 23.236l39.464 8.086zM813.757 647.671l-32.195 7.064c-84.264 18.482-177.795 19.46-263.31 2.688l-32.348-6.331-12.54 65.422 32.348 6.331c94.058 18.438 196.988 17.394 289.816-2.999l32.195-7.064-13.967-65.111z" />
<glyph unicode="&#xe61e;" glyph-name="search2" d="M1008.928 62.553l-388.528 388.592c28.624 49.136 45.312 106.032 45.312 166.88 0 183.536-149.344 332.832-332.896 332.832-183.52 0-332.816-149.296-332.816-332.832s149.296-332.864 332.816-332.864c60.832 0 117.744 16.688 166.864 45.296l388.56-388.56c4.688-4.688 10.832-7.024 16.976-7.024s12.272 2.336 16.96 7.024l86.752 86.704c4.512 4.512 7.040 10.624 7.040 16.976 0 6.368-2.528 12.48-7.040 16.976v0zM48 618.025c0 157.056 127.76 284.832 284.816 284.832 157.088 0 284.896-127.776 284.896-284.832 0-157.072-127.808-284.864-284.896-284.864-157.056 0-284.816 127.792-284.816 284.864v0zM905.216-7.191l-365.168 365.168c19.52 15.584 37.232 33.296 52.832 52.816l365.152-365.2-52.816-52.784z" />
<glyph unicode="&#xe61f;" glyph-name="up-down-arrow" horiz-adv-x="1336" d="M318.516 940.32c3.332 3.101 7.043 5.823 11.385 7.587 0 0 0.050 0 0.076 0.076 4.696 1.865 9.719 2.874 14.743 2.874 5.049 0 10.073-1.008 14.768-2.874l0.025-0.076c4.393-1.765 8.104-4.487 11.385-7.587 0.379-0.328 0.884-0.454 1.212-0.781l317.304-316.782-54.756-54.675-251.188 250.738v-876.261h-77.477v876.261l-251.238-250.738-54.756 54.675 317.355 316.782c0.328 0.328 0.783 0.454 1.161 0.781v0zM952.317-46.903c3.332-3.101 7.043-5.823 11.411-7.587 0 0 0.050 0 0.076-0.050 4.696-1.891 9.694-2.899 14.743-2.899 5.024 0 10.073 1.008 14.768 2.899l0.025 0.050c4.367 1.765 8.078 4.487 11.385 7.587 0.353 0.328 0.858 0.454 1.212 0.781l317.279 316.782-54.756 54.675-251.188-250.738v876.261h-77.477v-876.261l-251.238 250.738-54.756-54.675 317.38-316.782c0.303-0.328 0.757-0.454 1.136-0.781v0z" />
<glyph unicode="&#xe620;" glyph-name="windmills" horiz-adv-x="1625" d="M492.386 263.649c2.806 4.894 3.172 10.882 0.941 16.037-1.116 2.569-27.992 63.453-86.521 97.089-36.184 20.827-75.401 26.086-101.912 26.832l-0.837 0.017v0.833c-0.505 19.005-10.684 36.239-27.225 46.045l-0.715 0.417 0.401 0.729c12.619 23.205 27.661 59.618 27.661 101.341 0 67.81-40.768 122.602-41.187 123.14-3.381 4.513-8.767 7.203-14.38 7.203-5.769 0-11.016-2.621-14.414-7.185-0.418-0.555-41.204-55.348-41.204-123.158 0-41.654 15.042-78.102 27.644-101.341l0.401-0.729-0.715-0.417c-16.523-9.806-26.685-27.041-27.19-46.045l-0.017-0.833-0.837-0.017c-26.493-0.746-65.71-6.005-101.895-26.832-58.529-33.636-85.406-94.52-86.521-97.089-2.231-5.155-1.865-11.143 0.941-16.054 2.806-4.842 7.843-8.123 13.473-8.817 0.767-0.069 7.826-0.85 18.911-0.85 23.129 0 68.011 3.489 108.779 26.919 36.097 20.775 60.15 51.721 73.972 74.006l0.471 0.712 0.732-0.417c2.998-1.718 5.909-3.055 8.924-4.113l0.593-0.191v-379.817h-94.138v-35.771h224.147v35.771h-94.138v379.817l0.575 0.191c3.015 1.059 5.944 2.395 8.941 4.113l0.732 0.417 0.471-0.712c13.804-22.285 37.857-53.231 73.972-74.006 40.768-23.431 85.65-26.919 108.762-26.919 10.772 0 17.639 0.712 18.929 0.85 5.682 0.694 10.597 3.905 13.473 8.834v0zM184.366 365.962c-11.050-16.28-29.84-38.86-56.333-54.098-26.458-15.204-55.566-20.098-75.297-21.521l-1.813-0.139 1.028 1.51c11.068 16.263 29.875 38.877 56.368 54.116 26.371 15.152 55.496 20.046 75.262 21.487l1.813 0.139-1.028-1.493zM266.182 394.565c-0.209-0.312-0.366-0.451-0.505-0.555 0 0-0.035-0.174-0.139-0.347-3.608-6.422-9.952-10.223-16.924-10.223-7.007 0-13.386 3.801-17.011 10.223l-0.139 0.486c-0.105 0-0.261 0.121-0.401 0.312-1.464 3.037-2.144 5.797-2.144 8.591 0 10.813 8.837 19.595 19.696 19.595 10.841 0 19.661-8.782 19.661-19.595 0-2.794-0.68-5.554-2.092-8.487v0zM249.327 477.318l-0.784-1.631-0.784 1.631c-8.593 17.72-18.842 45.247-18.842 75.672s10.301 57.951 18.946 75.689l0.784 1.597 0.784-1.597c8.593-17.703 18.842-45.212 18.842-75.689 0-30.373-10.301-57.917-18.946-75.672v0zM444.419 290.29c-19.696 1.441-48.751 6.335-75.262 21.573-26.371 15.152-45.195 37.819-56.333 54.168l-1.028 1.493 1.795-0.139c19.713-1.441 48.786-6.335 75.279-21.556 26.302-15.134 45.178-37.819 56.333-54.185l1.028-1.493-1.813 0.139zM1610.594 263.649c2.824 4.86 3.155 10.847 0.924 16.037-1.116 2.569-27.992 63.453-86.521 97.089-36.184 20.827-75.401 26.086-101.895 26.832l-0.837 0.017-0.017 0.833c-0.505 19.022-10.684 36.239-27.225 46.045l-0.715 0.417 0.401 0.729c12.637 23.24 27.713 59.67 27.713 101.341 0 66.716-39.513 120.884-41.204 123.158-3.381 4.495-8.767 7.185-14.414 7.185-5.682 0-11.068-2.69-14.414-7.185-0.401-0.555-41.187-55.348-41.187-123.158 0-41.654 15.024-78.102 27.644-101.341l0.383-0.729-0.715-0.417c-16.523-9.806-26.685-27.041-27.173-46.045l-0.017-0.833-0.837-0.017c-26.511-0.746-65.728-6.005-101.912-26.832-58.512-33.636-85.389-94.52-86.521-97.089-2.231-5.155-1.865-11.143 0.941-16.054 2.806-4.842 7.843-8.123 13.473-8.817 0.767-0.069 7.843-0.85 18.911-0.85 23.129 0 68.028 3.489 108.797 26.919 36.097 20.775 60.15 51.721 73.972 74.006l0.453 0.712 0.732-0.417c2.998-1.718 5.926-3.055 8.941-4.113l0.575-0.191v-379.817h-94.121v-35.771h224.13v35.771h-94.103v379.817l0.593 0.191c3.015 1.059 5.926 2.395 8.889 4.113l0.732 0.417 0.471-0.712c13.874-22.32 37.962-53.283 73.972-74.006 40.768-23.431 85.65-26.919 108.762-26.919 10.772 0 17.656 0.712 18.929 0.85 5.682 0.694 10.615 3.905 13.491 8.834v0zM1302.574 365.962c-11.068-16.28-29.84-38.86-56.351-54.098-26.406-15.204-55.514-20.098-75.297-21.521l-1.813-0.139 1.028 1.51c11.085 16.263 29.875 38.877 56.368 54.116 26.406 15.169 55.514 20.046 75.279 21.487l1.795 0.139-1.011-1.493zM1384.372 394.547c-0.209-0.295-0.349-0.434-0.488-0.538 0 0-0.035-0.174-0.157-0.347-3.521-6.318-10.005-10.223-16.924-10.223-7.007 0-13.369 3.801-16.994 10.223l-0.157 0.486c-0.105 0-0.279 0.156-0.418 0.399-1.429 2.898-2.126 5.675-2.126 8.504 0 10.813 8.837 19.595 19.696 19.595s19.696-8.782 19.696-19.595c0-2.829-0.697-5.606-2.126-8.504v0zM1367.518 477.318l-0.784-1.631-0.784 1.631c-8.593 17.72-18.842 45.247-18.842 75.672s10.301 57.951 18.946 75.689l0.784 1.597 0.784-1.597c8.61-17.738 18.876-45.264 18.876-75.689 0-30.321-10.318-57.899-18.981-75.672v0zM1562.627 290.29c-19.696 1.441-48.751 6.335-75.279 21.573-26.371 15.152-45.195 37.819-56.333 54.168l-1.028 1.493 1.813-0.139c19.713-1.441 48.769-6.335 75.262-21.556 26.319-15.134 45.178-37.819 56.333-54.185l1.028-1.493-1.795 0.139zM826.55 499.88l4.357 1.527c3.765 1.319 7.425 2.985 11.172 5.12l5.473 3.107 3.329-5.328c18.354-29.592 50.25-70.587 97.921-97.974 53.875-30.98 113.259-35.614 143.883-35.614 15.495 0 24.872 1.145 24.959 1.163 5.944 0.677 11.225 4.131 14.188 9.268 3.015 5.172 3.364 11.299 0.976 16.835-1.464 3.402-36.794 83.847-114.392 128.399-47.88 27.561-99.82 34.504-134.959 35.476l-6.205 0.174-0.139 6.161c-0.61 23.847-13.334 45.386-34.058 57.639l-5.386 3.193 2.98 5.502c16.733 30.824 36.655 79.108 36.655 134.179 0 89.019-52.237 159.918-54.468 162.903-7.164 9.476-23.164 9.476-30.293-0.017-2.231-2.968-54.468-73.867-54.468-162.885 0-55.070 19.94-103.355 36.655-134.179l2.98-5.502-5.386-3.193c-20.741-12.253-33.483-33.809-34.075-57.639l-0.157-6.161-6.205-0.174c-35.121-0.972-87.044-7.914-134.924-35.458-77.58-44.57-112.928-125.015-114.392-128.417-2.405-5.519-2.039-11.646 0.959-16.835 2.946-5.137 8.227-8.574 14.136-9.268 0.157-0.017 9.447-1.163 25.029-1.163 30.607 0 90.025 4.634 143.883 35.614 47.566 27.336 79.515 68.365 97.955 97.974l3.312 5.328 5.456-3.107c3.747-2.135 7.408-3.801 11.172-5.12l4.357-1.527v-521.39h-126.941v-37.541h291.6v37.541h-126.941v521.39zM895.763 523.675c27.103-1.961 67.087-8.678 103.794-29.783 36.446-20.949 62.416-52.189 77.789-74.717l7.582-11.125-13.473 0.972c-27.156 1.979-67.192 8.747-103.794 29.8-36.585 21.035-62.486 52.241-77.789 74.717l-7.565 11.090 13.456-0.955zM725.544 513.453c-15.251-22.407-41.134-53.543-77.824-74.631-36.463-20.966-76.586-27.717-103.829-29.696l-13.473-0.972 7.582 11.125c15.321 22.441 41.274 53.612 77.824 74.613 36.498 20.966 76.621 27.717 103.829 29.696l13.473 0.972-7.582-11.108zM775.759 768.706c0 41.915 14.205 79.907 26.11 104.379l5.891 12.114 5.891-12.114c11.852-24.385 25.97-62.29 25.97-104.379 0-41.863-14.17-79.872-26.075-104.396l-5.874-12.097-5.891 12.080c-11.87 24.368-26.023 62.221-26.023 104.413v0zM780.134 551.185l-0.924 1.423c-2.301 4.547-3.451 9.216-3.451 13.85 0 17.529 14.327 31.813 31.931 31.813s31.931-14.284 31.931-31.813c0-4.53-1.15-9.181-3.416-13.798l-1.394-1.927c-6.31-10.414-16.192-16.072-27.121-16.072-11.417 0-21.718 6.179-27.556 16.523v0z" />
<glyph unicode="&#xe621;" glyph-name="search" horiz-adv-x="964" d="M656.324 566.573c0-144.565-117.579-262.144-262.144-262.144-145.528 0-263.108 117.579-263.108 262.144 0 145.528 117.579 263.108 263.108 263.108 144.565 0 262.144-117.579 262.144-263.108v0zM718.968 343.944c43.369 62.645 69.391 139.746 69.391 222.63 0 217.811-176.369 394.18-394.18 394.18s-394.18-176.369-394.18-394.18c0-217.811 176.369-394.18 394.18-394.18 82.884 0 159.985 26.022 223.593 69.391l244.796-244.796 101.195 101.195-244.796 245.76z" />
<glyph unicode="&#xe622;" glyph-name="file-document" d="M810.667 704l-170.667 170.667v-170.667h170.667zM615.373 650.368c-18.065 0-32.666 14.432-32.666 32.32v264.096c0 4.768 2.137 9.056 4.079 13.216h-394.328c-35.548 0-64.459-28.576-64.459-63.616v-896.512c0-35.232 28.911-63.872 64.459-63.872h639.050c35.548 0 64.491 28.64 64.491 63.872v654.528c-4.274-1.92-8.644-4.032-13.533-4.032h-267.094z" />
<glyph unicode="&#xe623;" d="M810.667 704l-170.667 170.667v-170.667h170.667z" />
<glyph unicode="&#xe624;" d="M882.467 650.368h-267.094c-18.065 0-32.666 14.432-32.666 32.32v264.096c0 4.768 2.137 9.056 4.079 13.216h-394.328c-35.548 0-64.459-28.576-64.459-63.616v-896.512c0-35.232 28.911-63.872 64.459-63.872h639.050c35.548 0 64.491 28.64 64.491 63.872v654.528c-4.274-1.92-8.644-4.032-13.533-4.032z" />
<glyph unicode="&#xe625;" d="M393.92 106.667c-6.95 0-9.92 3.193-9.92 10.138v363.757c0 6.945 2.97 10.105 9.92 10.105h191.443c7.011 0 9.95-3.16 9.95-10.105v-34.661c0-6.945-2.939-10.138-9.95-10.138h-138.385v-107.735h117.107c6.95 0 9.858-3.226 9.858-9.579v-34.661c0-6.945-2.909-10.171-9.858-10.171h-117.107v-111.981h140.375c6.95 0 9.981-3.226 9.981-10.171v-34.661c0-6.945-3.031-10.138-9.981-10.138h-193.433z" />
<glyph unicode="&#xe626;" d="M810.667 704l-170.667 170.667v-170.667h170.667z" />
<glyph unicode="&#xe627;" d="M882.467 650.368h-267.094c-18.065 0-32.666 14.432-32.666 32.32v264.096c0 4.768 2.137 9.056 4.079 13.216h-394.328c-35.548 0-64.459-28.576-64.459-63.616v-896.512c0-35.232 28.911-63.872 64.459-63.872h639.050c35.548 0 64.491 28.64 64.491 63.872v654.528c-4.274-1.92-8.644-4.032-13.533-4.032z" />
<glyph unicode="&#xe628;" d="M518.027 576c-7.723 34.505-8.149 64.265-0.555 81.036 0.64 1.379 1.621 2.918 2.645 4.297 5.077-3.816 10.24-10.486 11.861-21.935 0.171-1.251 1.237-2.149 2.091-3.175-1.877-1.122-3.328-2.63-3.883-4.554-1.664-6.317-3.243-14.142-5.077-23.346-1.835-9.043-4.181-20.107-7.083-32.325v0zM454.389 329.553c23.454 45.658 38.643 84.075 49.093 118.447 18.381-41.239 42.877-79.214 73.69-106.038 6.384-5.508 13.206-10.675 20.161-15.741-54.604-9.893-114.080-25.974-170.667-48.888 8.972 16.285 18.179 33.623 27.722 52.22v0zM809.109 301.781c1.304-1.792 1.494-3.157 1.558-4.309-2.289-1.024-5.532-1.963-11.318-1.963-17.677 0-44.701 9.088-74.015 24.235 2.003 0.043 4.229 0.256 6.168 0.256 60.217 0 74.619-13.909 77.608-18.219v0zM806.71 304.406c-13.629 21.417-59.379 25.86-95.371 25.86-18.748 0-40.343-1.343-63.794-3.996-16.412 9.334-32.281 19.819-46.486 31.103-36.408 29.888-63.41 80.521-80.494 131.379 6.463 37.368 7.358 70.292 7.902 103.792l0.32 16.366c0 1.566-0.768 2.877-1.504 4.124 1.376 1.183 2.431 2.813 2.783 4.699 3.199 16.878 1.792 28.641-4.287 36.025-6.239 7.512-14.429 7.288-18.94 7.512l-10.91 0.064c-10.206 0-18.332-7.672-21.755-20.554-9.566-35.546-4.895-95.353 13.245-155.257-11.453-39.701-28.826-87.554-57.011-144.261-63.186-127.095-111.655-196.716-144.704-208.703 6.878 18.732 35.704 59.328 81.102 93.18 3.359 2.493 4.223 7.128 1.984 10.677s-6.815 4.667-10.494 2.781c-67.121-35.642-96.715-77.101-101.674-101.81-1.28-6.233-0.48-11.156 1.408-15.152 0.16-0.575 0.384-0.991 0.64-1.534 0.32-0.479 0.352-1.215 0.704-1.662 0.672-0.831 1.568-1.534 2.527-2.046h0.032l0.032-0.032 0.832-0.416 12.605-6.457c4.447-2.27 9.278-3.42 14.397-3.42 32.089 0 75.055 47.117 130.147 141.799 59.763 21.225 141.441 38.423 215.985 46.030 47.542-25.125 99.37-39.861 132.611-39.861 27.93 0 35.544 10.549 37.048 19.403 0.128 0.511-0.128 0.991-0.128 1.534 0.672 0.639 1.568 1.055 1.92 1.95 5.823 12.243 2.815 21.385-0.672 26.883v0z" />
<glyph unicode="&#xe629;" d="M810.667 704l-170.667 170.667v-170.667h170.667z" />
<glyph unicode="&#xe62a;" d="M882.467 650.368h-267.094c-18.065 0-32.666 14.432-32.666 32.32v264.096c0 4.768 2.137 9.056 4.079 13.216h-394.328c-35.548 0-64.459-28.576-64.459-63.616v-896.512c0-35.232 28.911-63.872 64.459-63.872h639.050c35.548 0 64.491 28.64 64.491 63.872v654.528c-4.274-1.92-8.644-4.032-13.533-4.032z" />
<glyph unicode="&#xe62b;" d="M759.464 490.667h-41.624c-8.785 0-11.962-2.128-14.037-10.143l-40.036-173.859c-9.855-42.667-19.742-92.284-25.448-131.226-6.257 38.443-15.625 90.687-24.929 131.758l-40.101 172.795c-2.010 9.045-5.187 10.675-14.491 10.675h-44.737c-9.336 0-12.481-1.63-14.556-10.675l-38.999-173.327c-9.336-41.602-18.186-91.186-23.892-126.404-6.775 39.441-16.663 84.801-26.518 126.404l-42.111 173.859c-2.075 8.015-6.257 10.143-14.037 10.143h-46.811c-7.262 0-9.855-3.725-7.78-11.772l96.702-361.021c2.075-8.547 6.224-11.207 15.593-11.207h48.335c8.331 0 12.513 2.128 14.556 11.207l36.405 158.928c9.369 40.538 17.668 83.737 23.406 122.114 5.706-37.878 14.556-83.205 24.443-124.242l36.924-156.799c2.010-8.547 5.706-11.207 14.491-11.207h49.372c9.369 0 13.064 2.66 15.658 11.739l92.002 360.488c2.075 8.048 0 11.772-7.78 11.772z" />
<glyph unicode="&#xe62c;" d="M519.318-36.956c-73.257 0-365.718 311.202-365.718 594.393 0 210.336 163.733 380.845 365.718 380.845 201.991 0 365.711-170.509 365.711-380.845 0-283.191-292.448-594.393-365.711-594.393z" />
<glyph unicode="&#xe62d;" d="M519.314 791.996c-16.898 0-33.314-2.024-49.074-5.745 28.58-14.023 48.306-43.325 48.306-77.321 0-47.585-38.555-86.162-86.112-86.162-45.782 0-83.118 35.778-85.846 80.899-25.443-35.135-40.485-78.299-40.485-125.005 0-117.823 95.456-213.333 213.211-213.333s213.211 95.51 213.211 213.333c0 117.823-95.456 213.333-213.211 213.333v0z" />
<glyph unicode="&#xe62e;" glyph-name="instagram" horiz-adv-x="1103" d="M629.626 469.864c0 47.687-38.793 86.495-86.495 86.495-47.687 0-86.495-38.808-86.495-86.495 0-47.694 38.808-86.495 86.495-86.495 47.702 0 86.495 38.8 86.495 86.495zM748.954 822.962c0 13.787 12.236 25.050 27.224 25.050h84.098c14.979 0 27.232-11.262 27.232-25.050v-77.413c0-13.787-12.253-25.057-27.232-25.057h-84.098c-14.987 0-27.224 11.27-27.224 25.057v77.413zM548.148 711.356c50.166 0 96.625-14.728 134.671-39.671h350.448v62.823c0 124.337-109.9 225.492-244.979 225.492h-490.306c-135.087 0-244.987-101.155-244.987-225.492v-62.823h360.498c38.038 24.942 84.497 39.671 134.655 39.671v0zM780.857 458.124c0-127.508-104.397-231.227-232.709-231.227s-232.701 103.719-232.701 231.227c0 35.113 7.955 68.392 22.103 98.235h-284.554v-333.195c0-134.231 109.9-243.435 244.987-243.435h490.306c135.079 0 244.979 109.204 244.979 243.435v333.195h-274.513c14.148-29.843 22.103-63.122 22.103-98.235z" />
<glyph unicode="&#xe62f;" d="M962.496 960h-901.12c-33.792 0-61.44-27.648-61.44-61.44v-901.056c0-33.856 27.648-61.504 61.44-61.504h901.12c33.728 0 61.376 27.648 61.376 61.504v901.056c0 33.792-27.648 61.44-61.376 61.44v0z" />
<glyph unicode="&#xe630;" d="M573.097 436.612c0 30.997-25.215 56.221-56.221 56.221-30.997 0-56.221-25.225-56.221-56.221 0-31.001 25.225-56.221 56.221-56.221 31.006 0 56.221 25.22 56.221 56.221z" />
<glyph unicode="&#xe631;" d="M650.66 666.125c0 8.962 7.953 16.282 17.695 16.282h54.664c9.736 0 17.701-7.321 17.701-16.282v-50.319c0-8.962-7.964-16.287-17.701-16.287h-54.664c-9.742 0-17.695 7.326-17.695 16.287v50.319zM520.137 593.581c32.608 0 62.806-9.573 87.536-25.786h227.791v40.835c0 80.819-71.435 146.57-159.236 146.57h-318.699c-87.806 0-159.241-65.751-159.241-146.57v-40.835h234.324c24.725 16.213 54.923 25.786 87.526 25.786v0z" />
<glyph unicode="&#xe632;" d="M671.398 428.981c0-82.88-67.858-150.298-151.261-150.298s-151.256 67.418-151.256 150.298c0 22.823 5.171 44.455 14.367 63.853h-184.96v-216.577c0-87.25 71.435-158.233 159.241-158.233h318.699c87.801 0 159.236 70.982 159.236 158.233v216.577h-178.433c9.196-19.398 14.367-41.029 14.367-63.853z" />
<glyph unicode="&#xe633;" glyph-name="pinterest" horiz-adv-x="878" d="M368.639 284.478c-26.655-139.557-59.137-273.338-155.469-343.218-29.695 210.907 43.631 369.265 77.735 537.402-58.124 97.802 6.993 294.52 129.473 246.024 150.756-59.593-130.537-363.437 58.276-401.443 197.174-39.577 277.645 342.052 155.368 466.154-176.6 179.286-514.143 4.206-472.59-252.46 10.084-62.735 74.897-81.738 25.895-168.34-113.055 25.033-146.804 114.22-142.446 233.102 6.993 194.59 174.776 330.752 343.117 349.654 212.883 23.868 412.693-78.191 440.31-278.405 31.063-226.059-96.079-470.918-323.759-453.283-61.721 4.814-87.565 35.421-135.909 64.813v0z" />
<glyph unicode="&#xe634;" d="M962.496 960h-901.12c-33.792 0-61.44-27.648-61.44-61.44v-901.056c0-33.856 27.648-61.504 61.44-61.504h901.12c33.728 0 61.376 27.648 61.376 61.504v901.056c0 33.792-27.648 61.44-61.376 61.44v0z" />
<glyph unicode="&#xe635;" d="M462.847 333.535c-18.658-97.69-41.396-191.337-108.828-240.253-20.787 147.635 30.541 258.485 54.414 376.182-40.687 68.461 4.895 206.164 90.631 172.217 105.53-41.715-91.376-254.406 40.793-281.010 138.022-27.704 194.352 239.437 108.757 326.308-123.62 125.5-359.9 2.944-330.813-176.722 7.059-43.914 52.428-57.217 18.126-117.838-79.138 17.523-102.763 79.954-99.712 163.172 4.895 136.213 122.343 231.526 240.182 244.758 149.018 16.707 288.885-54.733 308.217-194.884 21.744-158.241-67.255-329.642-226.631-317.298-43.205 3.37-61.296 24.795-95.136 45.369v0z" />
<glyph unicode="&#xe900;" glyph-name="Thinkingbeyond" d="M1021.536 449.232c0-282.096-228.672-510.768-510.768-510.768s-510.768 228.672-510.768 510.768c0 282.096 228.672 510.768 510.768 510.768s510.768-228.672 510.768-510.768zM510.768 913.232c-256.256 0-464-207.744-464-464s207.744-464 464-464 464 207.744 464 464-207.76 464-464 464zM931.008 440.688l-276.096-130.576c-2.912-1.424-7.472 0.032-9.12 2.736l-96.080 158.672c-1.104 1.824-2.336 3.648-3.696 5.504l282.192 129.088c3.312-3.104 6.112-6.336 7.92-9.232l95.488-154.128-0.608-2.064zM806.992 247.44c0-5.6-5.616-14.16-10.752-16.352l-263.040-113.024v296.272l75.216-124.16c13.344-21.984 42.048-30.576 65.232-19.616l133.344 63.072v-86.192zM227.76 223.648c-5.008 2.048-10.528 10.272-10.528 15.696v93.664l132.032-62.448c6.832-3.216 14.128-4.752 21.36-4.752 17.376 0 34.448 8.848 43.888 24.368l74.928 123.728v-296.48l-261.68 106.224zM91.296 442.768l95.488 154.144c1.792 2.88 4.608 6.096 7.92 9.216l282.16-129.088c-1.344-1.872-2.576-3.696-3.68-5.52l-96.080-158.64c-1.648-2.72-6.208-4.176-9.104-2.752l-276.080 130.56-0.624 2.080zM968.8 465.824l-95.472 154.112c-10.128 16.352-31.344 33.648-49.36 40.256l-280.576 103.232c-18.288 6.72-45.856 6.72-64.144-0.016l-280.384-103.2c-18-6.656-39.2-23.952-49.296-40.256l-95.488-154.144c-6.896-11.104-8.768-24.48-5.152-36.672 3.616-12.208 12.448-22.416 24.272-28l100.272-47.424v-114.352c0-23.312 16.272-47.488 37.856-56.224l267.68-108.656c9.040-3.664 20.272-5.488 31.552-5.488 11.968 0 24 2.048 33.536 6.128l269.376 115.744c21.264 9.12 37.28 33.44 37.28 56.576v106.912l98.96 46.784c11.808 5.616 20.672 15.792 24.304 28 3.568 12.192 1.68 25.552-5.216 36.688v0zM511.312 513.6l-265.472 121.52 265.472 97.712 265.728-97.728-265.728-121.504z" />
<glyph unicode="&#xe901;" glyph-name="Thinkingbeyondv2" d="M976.352 345.344l-304.768-144.128c-3.184-1.584-8.256 0.032-10.080 3.008l-106.048 175.104c-1.216 2.016-2.576 4.048-4.080 6.096l311.488 142.496c3.664-3.44 6.736-6.992 8.752-10.192l105.392-170.144-0.656-2.24zM839.456 132.016c0-6.192-6.208-15.632-11.872-18.064l-290.336-124.768v327.040l83.024-137.056c14.72-24.256 46.416-33.728 71.984-21.632l147.2 69.632v-95.152zM200.112 105.744c-5.536 2.256-11.632 11.328-11.632 17.344v103.392l145.728-68.944c7.536-3.568 15.6-5.248 23.584-5.248 19.184 0 38.016 9.76 48.448 26.896l82.688 136.592v-327.248l-288.816 117.216zM49.456 347.616l105.408 170.16c1.984 3.168 5.088 6.72 8.736 10.16l311.44-142.496c-1.472-2.064-2.848-4.096-4.064-6.096l-106.048-175.088c-1.824-3.008-6.848-4.608-10.048-3.024l-304.72 144.112-0.704 2.272zM1018.048 373.072l-105.36 170.112c-11.168 18.032-34.608 37.12-54.496 44.432l-77.68 27.888-33.392-35.072 58.080-21.344-293.2-134.112-293.168 133.536 293.168 108.384 83.712-30.768 34.032 35.536-81.248 29.904c-20.192 7.424-50.608 7.424-70.8-0.032l-309.504-113.92c-19.856-7.328-43.264-26.432-54.4-44.432l-105.392-170.144c-7.616-12.256-9.68-27.024-5.664-40.48 3.984-13.472 13.728-24.752 26.768-30.912l110.672-52.352v-126.208c0-25.744 17.952-52.416 41.792-62.064l295.456-119.936c9.984-4.048 22.368-6.064 34.816-6.064 13.216 0 26.496 2.288 37.008 6.784l297.344 127.76c23.472 10.048 41.136 36.896 41.136 62.432v118.016l109.232 51.632c13.040 6.192 22.816 17.44 26.816 30.912 3.968 13.456 1.904 28.24-5.728 40.512v0zM995.776 960h-296.848v-56.256h228.992l-338.544-341.168 39.76-39.744 338.528 341.168v-283.52h56.256v351.392c-0.016 15.552-12.64 28.128-28.144 28.128z" />
<glyph unicode="&#xe902;" glyph-name="knowingyourcustomerv3" d="M497.952 549.008c112.832 0 204.512 91.68 204.512 204.4 0 112.832-91.68 204.592-204.512 204.592-112.704 0-204.4-91.76-204.4-204.592 0-112.72 91.696-204.4 204.4-204.4zM490.64 574.48c-16.576 0-30.56 14.080-30.56 30.448 0 16.944 14.080 30.976 30.56 30.976 16.88 0 30.96-14.016 30.96-30.976 0-16.416-13.952-30.448-30.96-30.448zM546.288 739.36c-26.144-13.52-33.872-23.28-33.872-41.68v-32.88c0-3.392-7.264-4.848-18.864-4.848h-6.336c-12.528 0-19.792 1.456-19.792 4.848v30.96c0 37.776 13.040 56.592 51.328 76.016 28.608 14.544 42.096 29.52 42.096 58.080 0 37.312-24.752 47.504-55.696 47.504-17.472 0-33.936-3.856-50.304-12.144-2.496-1.456-7.84 0.928-11.648 9.232l-4.368 9.68c-2.96 6.8-2.384 14.544 0 15.952 19.856 11.632 48.384 17.92 71.184 17.92 54.704 0 97.264-22.768 97.264-82.32 0-46.48-25.216-77.92-60.992-96.32zM803.216-33.904v236.72c0 168.24-137.008 305.136-305.264 305.136s-305.12-136.896-305.12-305.28l0.24-235.824c0-30.416 30.784-29.968 30.784-29.968h550.64c-0.016 0 28.72 0 28.72 29.216zM260.96 202.816c0 121.408 91.84 221.664 209.616 235.328l-40.752-316.064 68.144-54.976 68.128 54.976-40.752 316.064c117.872-13.664 209.744-113.92 209.744-235.328v-197.616h-473.92l-0.208 197.616z" />
<glyph unicode="&#xe903;" glyph-name="knowingyourcustomerv2" d="M874.736 23.968l-159.136 159.056c22.432 18.368 43.008 38.944 61.376 61.328l159.056-159.088-61.296-61.296zM72.848 521.84c0 201.408 163.904 365.312 365.28 365.312 201.456 0 365.44-163.904 365.44-365.312 0-201.472-163.984-365.312-365.44-365.312-201.392 0-365.28 163.84-365.28 365.312v0zM1013.264 110.96l-194.496 194.592c36.496 63.888 57.648 137.632 57.648 216.304-0.016 241.568-196.592 438.144-438.304 438.144-241.536 0-438.112-196.576-438.112-438.16 0-241.616 196.576-438.16 438.112-438.16 78.704 0 152.448 21.040 216.256 57.552l194.592-194.576c7.072-7.072 16.432-10.656 25.776-10.656 9.264 0 18.624 3.584 25.68 10.656l112.848 112.752c6.832 6.832 10.736 16.112 10.736 25.856 0 9.6-3.824 18.864-10.736 25.696v0zM645.504 191.712v131.824c0 107.648-83.376 195.968-188.992 204.128l30.496-236.816-46.448-37.52-46.464 37.52 30.528 236.816c-105.52-8.16-188.912-96.48-188.912-204.224l0.72-131.728 2.576-52.672h401.632l4.864 52.672zM440.56 563.104c75.12 0 136.256 61.072 136.256 136.16 0 75.152-61.136 136.24-136.256 136.24-75.088 0-136.144-61.088-136.144-136.24-0.016-75.088 61.056-136.16 136.144-136.16z" />
<glyph unicode="&#xe904;" glyph-name="knowingyourcustomerv1" d="M909.248 3.632l-359.12 359.056c17.248 14.128 33.056 29.936 47.184 47.152l359.056-359.088-47.12-47.12zM56 623.152c0 154.848 126 280.848 280.816 280.848 154.88 0 280.944-126 280.944-280.848 0-154.88-126.064-280.848-280.944-280.848-154.816 0.016-280.816 125.984-280.816 280.848v0zM1015.744 70.496l-386.304 386.384c28.064 49.12 44.32 105.808 44.32 166.288-0.016 185.712-151.136 336.832-336.944 336.832-185.696 0-336.816-151.12-336.816-336.848 0-185.744 151.12-336.848 336.816-336.848 60.496 0 117.184 16.192 166.256 44.256l386.368-386.368c5.44-5.44 12.624-8.192 19.808-8.192 7.12 0 14.32 2.752 19.744 8.192l86.752 86.688c5.248 5.248 8.256 12.368 8.256 19.872 0 7.376-2.944 14.496-8.256 19.744v0zM496.24 369.376v101.328c0 82.752-64.080 150.656-145.296 156.928l23.44-182.048-35.696-28.832-35.712 28.832 23.456 182.048c-81.12-6.272-145.232-74.176-145.232-156.992l0.56-101.264 1.984-40.496h308.768l3.728 40.496zM338.688 654.88c57.744 0 104.736 46.96 104.736 104.672 0 57.776-47.008 104.736-104.736 104.736s-104.672-46.976-104.672-104.736c0-57.728 46.944-104.672 104.672-104.672z" />
<glyph unicode="&#xe905;" glyph-name="Balloon" d="M937.216 875.664h-850.464c-45.632 0-82.768-37.136-82.768-82.768v-515.088c0-45.632 37.136-82.784 82.768-82.784h290.384v-150.624c0-9.712 5.856-18.496 14.864-22.256 2.976-1.216 6.112-1.808 9.216-1.808 6.272 0 12.416 2.432 17.024 7.024l167.728 167.664h351.248c45.648 0 82.784 37.152 82.784 82.784v515.088c0 45.632-37.136 82.768-82.784 82.768zM971.824 277.808c0-19.056-15.536-34.592-34.608-34.592h-361.216c-6.384 0-12.512-2.56-17.024-7.056l-133.664-133.632v116.592c0 10.464-7.344 19.664-16 22.592-6.288 1.744-8.080 1.504-8.080 1.504h-314.48c-19.072 0-34.608 15.536-34.608 34.592v515.088c0 19.072 15.536 34.608 34.608 34.608h850.464c19.072 0 34.608-15.536 34.608-34.608v-515.088z" />
<glyph unicode="&#xe906;" glyph-name="acceleratinginnovationcopy" d="M854.256 634.944l1.696 27.392c0 79.504-40.048 154.208-112.736 210.416-45.568 35.216-102.144 61.232-163.664 75.216-35.152 7.984-71.696 12.032-108.704 12.032-102.928 0-199.616-30.992-272.384-87.264-72.752-56.208-112.752-130.944-112.752-210.416l1.616-27.376c4.848-40.928 20.32-79.936 45.904-115.904 0.272-2 145.024-202.608 145.024-327.968l4.944-37.088c7.84-24.768 24.192-37.328 48.56-37.328h278.064c24.464 0 40.816 12.56 48.576 37.328l4.976 37.088c0 125.36 144.736 325.968 146.208 327.968 24.448 35.968 39.904 74.976 44.672 115.904zM610.288 31.248c19.6 0 35.6-12.048 35.6-26.88s-16-26.864-35.6-26.864h-278.88c-19.664 0-35.6 12.032-35.6 26.864s15.952 26.88 35.6 26.88h278.88zM331.392 47.024c-19.664 0-35.6 12.048-35.6 26.896 0 14.8 15.952 26.768 35.6 26.768h278.864c19.616 0 35.6-11.968 35.6-26.768 0-14.848-15.984-26.896-35.6-26.896h-278.864zM777.024 618.512c-3.792-34.848-16.144-68.080-35.664-98.72-1.168-1.728-127.024-172.576-127.024-279.376l-3.968-31.584c-6.192-21.072-19.248-31.792-38.784-31.792h-206.8c-19.456 0-32.528 10.72-38.784 31.792l-3.952 31.584c0 106.816-120.608 277.664-120.832 279.376-20.416 30.64-32.784 63.872-36.656 98.72l-1.296 23.328c0 67.68 31.936 131.344 90.048 179.232 58.112 47.92 135.328 74.32 217.52 74.32 29.568 0 58.752-3.456 86.816-10.256 49.12-11.92 94.32-34.064 130.704-64.064 58.048-47.888 90.048-111.52 90.048-179.232l-1.376-23.328zM540.48-33.104c9.776 0 17.776-6.944 17.776-15.472 0-8.496-8-15.424-17.776-15.424h-139.312c-9.824 0-17.776 6.928-17.776 15.424 0 8.528 7.968 15.472 17.776 15.472h139.312z" />
<glyph unicode="&#xe907;" glyph-name="Mobile_Banking" horiz-adv-x="606" d="M212.547 469.707c-0.051-1.223-0.081-2.659-0.081-4.101 0-57.579 46.677-104.256 104.256-104.256s104.256 46.677 104.256 104.256c0 1.442-0.029 2.878-0.087 4.306l-48.894-0.205c0.051-0.897 0.081-1.945 0.081-3.001 0-30.84-25-55.84-55.84-55.84s-55.84 25-55.84 55.84c0 1.056 0.029 2.104 0.087 3.146l-0.006 19.060h66.007v48.416h-65.523v19.044c-0.051 0.897-0.081 1.945-0.081 3.001 0 30.84 25 55.84 55.84 55.84s55.84-25 55.84-55.84c0-1.056-0.029-2.104-0.087-3.146l48.422 0.145c0.051 1.223 0.081 2.659 0.081 4.101 0 57.579-46.677 104.256-104.256 104.256s-104.256-46.677-104.256-104.256c0-1.442 0.029-2.878 0.087-4.306l-0.007-18.839h-43.574v-48.416h43.574v-19.205zM522.732 960h-439.457c-45.588-0.455-82.38-37.473-82.469-83.106v-857.619c0.092-45.866 37.248-83.023 83.105-83.114h438.82c45.866 0.092 83.023 37.248 83.114 83.105v857.619c-0.092 45.866-37.248 83.023-83.105 83.114zM557.592 19.276c0-19.163-15.535-34.698-34.698-34.698h-439.618c-18.884 0.363-34.053 15.756-34.053 34.692 0 0.002 0 0.004 0 0.006v857.61c0 19.163 15.535 34.698 34.698 34.698h438.811c0.048 0 0.105 0 0.161 0 19.163 0 34.698-15.535 34.698-34.698 0 0 0 0 0 0v-857.61zM474.316 815.559h-342.463c-26.739 0-48.416-21.677-48.416-48.416v-496.588c0-26.739 21.677-48.416 48.416-48.416h342.463c26.739 0 48.416 21.677 48.416 48.416v497.233c-0.364 26.46-21.899 47.771-48.412 47.771-0.002 0-0.003 0-0.005 0zM474.316 270.555h-341.817v497.394h341.656v-497.394zM302.923 191.314c-45.209-0.092-81.823-36.762-81.823-81.984 0-45.279 36.706-81.985 81.985-81.985 45.222 0 81.892 36.614 81.984 81.814 0 0.057 0 0.114 0 0.17 0 45.279-36.706 81.985-81.985 81.985-0.057 0-0.114 0-0.17 0zM302.923 75.761c-18.47 0.092-33.407 15.086-33.407 33.568 0 18.539 15.029 33.568 33.568 33.568s33.568-15.029 33.568-33.568c0-0.057 0-0.113 0-0.17-0.091-18.461-15.085-33.399-33.568-33.399-0.057 0-0.114 0-0.171 0zM250.311 883.987h105.386v-48.416h-105.386v48.416z" />
<glyph unicode="&#xe908;" glyph-name="ING_Wind_Energy" d="M884.624 330.592c-21.904 13.6-37.776 33.744-47.744 49.6 17.664-1.408 41.744-6.064 63.792-19.744 21.92-13.6 37.776-33.776 47.744-49.536-17.648 1.344-41.728 6-63.792 19.68zM781.6 620.848c7.696-17.12 16.016-41.888 16.016-69.232 0-27.232-8.336-52.080-16.080-69.248-7.696 17.088-16 41.872-16 69.248 0 27.2 8.336 52.064 16.064 69.232zM795.472 405.84c-0.064-0.128-0.032-0.224-0.096-0.32-2.752-5.28-7.808-9.024-13.808-9.024-5.984 0-11.024 3.744-13.776 9.024-0.080 0.096-0.048 0.192-0.096 0.32-0.096 0.16-0.32 0.288-0.4 0.432-1.056 2.32-1.744 4.784-1.744 7.472 0 9.504 7.184 17.216 16.032 17.216 8.864 0 16.048-7.712 16.048-17.216 0-2.688-0.72-5.152-1.76-7.472-0.128-0.144-0.32-0.272-0.4-0.432zM678.512 330.592c-21.952-13.632-46.128-18.256-63.824-19.664 9.936 15.712 25.712 35.808 47.76 49.504 21.936 13.6 46.128 18.288 63.84 19.664-9.936-15.696-25.76-35.84-47.776-49.504zM990.704 300.656c-0.976 2.368-23.968 58.56-74 89.664-31.456 19.504-65.552 24.096-87.168 24.752-0.4 18.336-9.744 34.176-23.536 42.992 10.304 20.416 23.664 54.464 23.664 93.568 0 62.080-33.776 111.6-35.232 113.664-3.040 4.368-7.792 6.944-12.88 6.944s-9.808-2.576-12.864-6.944c-1.44-2.080-35.232-51.584-35.232-113.664 0-39.104 13.376-73.152 23.664-93.568-13.744-8.8-23.104-24.656-23.536-42.992-21.6-0.656-55.696-5.248-87.152-24.752-50.048-31.088-73.040-87.28-73.984-89.664-2.016-5.008-1.68-10.72 0.832-15.44 2.528-4.752 7.008-7.872 12.032-8.496 2.384-0.336 59.168-7.024 109.2 24.032 31.232 19.376 51.904 48.496 63.312 68.32 2.448-1.536 5.008-2.816 7.696-3.872v-347.776h-80.176v-34.464h192.416v34.464h-80.16v347.76c2.704 1.056 5.248 2.336 7.728 3.872 11.36-19.808 32.048-48.944 63.248-68.32 50.048-31.056 106.832-24.368 109.248-24.032 5.008 0.624 9.488 3.744 12 8.496 2.544 4.736 2.88 10.464 0.88 15.456zM443.872 451.856c-29.504 18.336-50.848 45.52-64.272 66.768 23.728-1.84 56.192-8.128 85.872-26.56 29.504-18.32 50.848-45.488 64.24-66.736-23.712 1.792-56.16 8.096-85.84 26.528zM305.2 842.784c10.368-23.040 21.536-56.4 21.536-93.264 0-36.64-11.2-70.144-21.616-93.248-10.352 23.024-21.536 56.416-21.536 93.248 0 36.672 11.2 70.144 21.616 93.264zM323.856 553.184c-0.064-0.128-0.048-0.304-0.112-0.448-3.712-7.088-10.512-12.112-18.592-12.112s-14.88 5.024-18.56 12.112c-0.064 0.144-0.048 0.32-0.128 0.448-0.144 0.272-0.384 0.384-0.544 0.608-1.376 3.088-2.32 6.432-2.32 10.048 0 12.8 9.68 23.2 21.568 23.2 11.92 0 21.584-10.4 21.584-23.2 0-3.632-0.944-6.976-2.336-10.048-0.16-0.208-0.432-0.336-0.56-0.608zM166.416 451.856c-29.504-18.336-62.064-24.64-85.888-26.48 13.36 21.152 34.64 48.256 64.336 66.672 29.488 18.32 62.048 24.624 85.888 26.496-13.376-21.168-34.672-48.256-64.336-66.688zM586.608 411.536c-1.28 3.216-32.24 78.928-99.584 120.72-42.352 26.304-88.24 32.496-117.328 33.36-0.592 24.736-13.12 46.032-31.664 57.904 13.84 27.504 31.84 73.36 31.84 126 0 83.632-45.472 150.336-47.408 153.104-4.096 5.904-10.496 9.376-17.328 9.376-6.816 0-13.232-3.472-17.312-9.36-1.952-2.784-47.424-69.472-47.424-153.104 0-52.64 18.016-98.512 31.856-126-18.544-11.872-31.104-33.168-31.68-57.904-29.072-0.864-74.96-7.056-117.296-33.36-67.344-41.808-98.304-117.504-99.584-120.72-2.704-6.752-2.304-14.464 1.12-20.816 3.424-6.336 9.424-10.592 16.192-11.44 3.232-0.4 79.664-9.472 147.008 32.368 42 26.064 69.856 65.36 85.184 91.984 3.296-2.032 6.736-3.76 10.384-5.152v-468.448h-107.904v-46.432h258.96v46.432h-107.92v468.432c3.648 1.376 7.072 3.104 10.4 5.152 15.312-26.608 43.136-65.904 85.168-91.984 67.328-41.84 143.792-32.784 146.976-32.368 6.8 0.848 12.784 5.088 16.192 11.44 3.456 6.336 3.856 14.064 1.152 20.816z" />
<glyph unicode="&#xe909;" glyph-name="Umbrella" d="M387.568 836.368c-53.76-69.728-104.080-195.328-113.376-325.584h-147.888c22.592 141.6 131.92 273.344 261.264 325.584zM487.040 847.936l-0.048-337.136h-163.808c13.584 174.432 81.408 315.2 163.856 337.136zM535.84 846.624c80.688-25.376 146.56-164.224 159.968-335.824h-160.016l0.048 335.824zM893.44 510.8h-148.656c-9.936 139.952-52.224 257.408-112.528 325.568 150.944-41.616 236.080-168.528 261.184-325.568zM121.552 462h150.512c-0.096-5.008-0.4-9.936-0.4-15.008h48.8c0 5.056 0.272 10 0.368 15.008h166.16l-0.032-380.16c0-38.88-31.648-70.496-70.528-70.496-38.912 0-70.576 31.632-70.576 70.496h-48.784c0-65.744 53.568-119.296 119.36-119.296s119.328 53.552 119.328 119.296l0.032 380.16h162.336c0.096-5.008 0.352-9.952 0.352-15.008h48.784c0 5.072-0.272 10-0.336 15.008h150.288c0.208-5.008 0-9.952 0-15.024l48.432 0.016c0 246.16-165.008 446.672-409.808 452.496v37.616h-48.8v-39.008c-232.064-19.408-415.040-214.112-415.040-451.104h48.784c0 5.072 0.576 10 0.768 15.008z" />
<glyph unicode="&#xe90a;" glyph-name="Clouds" d="M768.096 517.184c-3.088 4.448-61.088 125.808-220.64 103.152-14.336 9.6-57.456 44.656-119.856 16.272-8.4 12.608-39.6 77.696-133.232 77.696-62.688 0-140.352-47.312-152.16-124.72-41.2 15.408-127.36-4.592-127.36-91.856-0.016-30.288 25.152-97.728 97.152-97.728 24 0 85.008 0 111.424 0-55.424-84 3.584-210 112.576-208 146 0 467.008 0 496 0 39.008 0 166.32 36 166.32 169.28-4.32 158.72-170.32 187.712-230.224 155.904zM112 448c0 0-52 0.256-52.752 52.512-0.256 17.488 10.496 52.48 53.536 54.656 26.96-0.912 33.216-20.16 48.736-18.592 2.224 0.176 17.984 0.416 19.856 21.168-0.88 33.008 21.376 100.256 94.416 112.608 92.208 11.136 122.4-69.616 122.4-69.616s10.8-24.24 32-9.856c30.544 20.864 62.144 10.48 62.144 10.48s-96.336-40.368-114.992-148.688c-4.864 2.112-25.008 11.76-44.192 11.76s-48.4-8.432-66.32-16.432c-4.864-2.176-154.832 0-154.832 0zM832 256c-6.496 0-496 0-496 0s-71.328 1.328-73.152 73.536c-2.848 45.136 44.752 67.472 50.96 70.464 26.944 11.504 65.92-11.776 69.056-14.272s6.464-5.856 17.936-6.176c25.456 1.2 27.888 20.448 27.888 20.448s1.776 32.496 5.040 48c8.016 32.752 60.272 121.248 154 117.472 18.768 1.024 92.768-1.232 140.032-97.488 6.24-13.728 22.576-19.648 28.672-18.864 12.064-1.12 35.568 25.632 75.568 23.216 16-0.080 72-8.576 95.344-61.6 38.16-94.736-39.84-154.24-95.344-154.736z" />
<glyph unicode="&#xe90b;" glyph-name="viadeo" d="M512 960c-282.771 0-512-229.229-512-512s229.229-512 512-512 512 229.229 512 512-229.229 512-512 512zM710.378 330.452c-2.965-52.096-19.862-99.215-51.027-141.097-15.693-21.109-33.658-39.954-54.84-55.647-27.184-20.113-57.396-33.313-90.447-40.248-24.461-5.144-49.173-6.547-74.042-5.322-26.828 1.309-52.976 6.317-78.128 15.934-26.996 10.319-51.216 25.236-72.492 44.794-28.745 26.42-51.415 57.292-66.971 93.213-9.617 22.229-15.693 45.402-18.741 69.443-2.158 17.044-2.734 34.13-1.823 51.237 3.185 59.46 23.79 112.048 62.456 157.471 17.421 20.47 37.157 38.32 59.994 52.609 23.989 15.012 49.896 25.257 77.646 30.767 23.162 4.599 46.523 6.191 70.135 4.85 22.062-1.257 43.663-4.945 64.708-11.701 2.441-0.796 5.102-1.226 7.543-3.143-4.452-9.533-8.747-19.108-11.974-29.122-3.195-10.015-5.322-20.27-6.673-31.092-1.969 0.608-3.394 0.953-4.745 1.467-15.515 6.034-31.658 9.617-48.23 10.916-12.927 1.016-25.917 0.943-38.865-0.576-14.635-1.728-28.85-5.018-42.636-10.224-21.36-8.077-40.321-20.071-57.281-35.282-21.989-19.715-39.588-42.678-51.635-69.747-8.077-18.165-13.074-37.178-15.452-56.925-1.948-16.122-2.294-32.265-0.681-48.408 2.745-27.457 10.643-53.374 23.811-77.646 12.361-22.753 28.19-42.615 48.628-58.664 23.633-18.552 50.2-30.715 79.72-36.476 2.567-0.492 4.745-0.22 7.061 0.733 21.622 8.967 40.709 21.789 57.501 38.058 18.27 17.683 32.768 38.194 44.857 60.466 13.577 25.079 23.644 51.561 31.647 78.861 6.505 22.219 11.513 44.773 15.41 67.579 3.101 18.154 5.447 36.434 7.302 54.777 4.086 39.724 5.133 79.552 4.316 119.444-0.157 6.809-0.576 14.687-0.859 22.355-0.555 4.117-0.754 5.615-0.901 6.474l-1.655 3.048c-5.615 14.54-10.989 29.185-16.845 43.621-21.412 52.63-46.481 103.489-75.017 152.631-1.226 2.116-2.483 4.211-3.646 6.348-0.22 0.388 0.021 1.006 0.084 2.022 1.938-1.55 3.572-2.787 5.123-4.117 16.415-14.058 29.898-30.652 41.578-48.743 16.95-26.252 29.039-54.683 37.576-84.686 6.285-22.104 10.423-44.616 12.833-67.453 0.042-0.283 0.084-1.645 0.084-2.399 0.147-0.807 0.325-2.127 0.922-6.474 0.649-1.173 1.55-3.153 1.875-3.96 9.816-26.304 17.432-53.227 22.282-80.872 4.274-24.314 6.432-48.838 5.898-73.55-1.131-50.577-12.539-98.702-34.968-144.062-26.975-54.568-65.148-99.949-113.588-136.739-2.399-1.812-4.819-3.583-7.218-5.395-0.105-0.073-0.084-0.314-0.283-1.362 4.662 0.178 8.978 0.126 13.273 0.513 46.355 4.211 86.299 22.271 118.784 55.835 22.24 22.973 37.314 50.304 46.669 80.82 6.223 20.302 8.946 41.138 8.695 62.309-0.293 25.404-4.463 50.137-13.849 73.854-0.346 0.869-0.649 1.77-0.943 2.661-0.105 0.346-0.063 0.733-0.126 1.341 6.757 1.99 13.608 3.771 20.291 6.097 6.558 2.284 13.021 4.871 19.328 7.773 6.474 2.975 12.707 6.474 19.296 9.868 0.576-1.163 1.205-2.273 1.687-3.478 6.767-16.803 11.324-34.245 14.289-52.085 3.478-21.004 4.484-42.207 3.279-63.493zM822.102 650.432c-1.289-20.721-5.238-41.002-11.984-60.675-3.268-9.46-7.93-18.27-12.958-26.87-8.695-14.855-19.003-28.452-32.119-39.755-13.503-11.659-28.913-19.485-46.575-22.554-14.582-2.546-28.829-1.289-42.835 3.331-14.865 4.903-27.876 13-39.797 22.984-3.153 2.65-6.139 5.489-9.313 8.318 1.289 2.168 3.331 2.807 5.028 3.803 23.287 13.503 45.726 28.284 67.128 44.585 17.683 13.472 34.517 27.907 49.33 44.543 8.517 9.585 16.185 19.789 21.873 31.364 2.556 5.259 4.588 10.706 5.856 16.426 0.22 1.016 0.168 2.085 0.293 4.316-37.859-65.966-92.658-107.69-165.558-125.551-0.901 1.205-1.54 1.886-1.98 2.682-8.946 16.216-14.236 33.543-15.064 52.075-1.006 22.68 5.709 42.971 19.579 60.948 7.469 9.669 16.51 17.421 27.048 23.549 15.389 8.925 31.815 15.263 48.806 20.239 1.98 0.587 4.002 1.121 5.982 1.613 23.067 5.646 42.594 17.505 59.565 33.878 11.178 10.8 20.26 23.214 27.52 36.948 1.089 2.116 2.294 4.18 3.729 6.809 1.938-3.059 3.572-5.552 5.060-8.129 10.539-18.165 18.175-37.503 23.654-57.742 6.83-25.299 9.334-51.038 7.731-77.133z" />
<glyph unicode="&#xe90c;" glyph-name="imgur" horiz-adv-x="262" d="M130.953 641.465c76.264 0 112.223-47.818 112.223-147.337v-409.66c0-99.53-34.518-148.647-112.223-148.647-77.693 0-113.676 49.116-113.676 148.647v409.66c0 99.519 35.983 147.337 113.676 147.337v0zM130.953 719.562c-73.395 0-130.953 51.688-130.953 117.605 0 64.607 58.999 117.593 130.953 117.593 71.942 0 129.5-52.986 129.5-117.593 0-65.917-57.558-117.605-129.5-117.605z" />
<glyph unicode="&#xe90d;" glyph-name="Bar_Charts" d="M937.296 54.096l-319.552-1.008-0.224 147.968v238.752c0 1.328-0.256 2.56-0.352 3.856l-0.368 248 320.496 1.008v-638.576zM569.744 54.096h-218.88v382.88h218.896v-382.88zM302.608 54.096h-218.864v152.208h218.864v-152.208zM569.936 692.688v-204.528h-221.728c-24.896 0-45.168-21.68-45.168-48.352v-182.288h-227.248c-22 0-39.856-19.152-39.856-42.704v-169.216c0-23.568 17.872-42.672 39.856-42.672h862.448c25.824 0 46.848 22.48 46.848 50.16v639.6c0 27.68-21.008 50.16-46.848 50.16h-321.44c-25.84 0.016-46.864-22.464-46.864-50.16z" />
<glyph unicode="&#xe90e;" glyph-name="volume-harder" d="M267.936 265.6c-7.072 0-14.144 2.048-20.288 6.048l-230.944 151.456c-10.656 6.976-16.928 18.912-16.704 31.616 0.256 12.704 7.008 24.416 17.888 30.976l230.944 139.328c11.36 6.88 25.696 7.104 37.28 0.544 11.616-6.56 18.784-18.848 18.784-32.192v-290.784c0-13.6-7.456-26.080-19.392-32.544-5.504-2.976-11.552-4.448-17.568-4.448zM106.4 452.736l124.576-81.664v156.8l-124.576-75.136zM867.072 10.656l-59.328 44.128 22.048 29.696c78.656 105.76 120.256 231.456 120.256 363.488 0 132.064-41.6 257.792-120.256 363.584l-22.048 29.664 59.328 44.128 22.048-29.664c88.224-118.624 134.88-259.616 134.88-407.712 0-148.064-46.656-289.024-134.88-407.68l-22.048-29.632zM681.952 126.112l-57.696 46.272 23.136 28.832c56.896 70.912 86.976 156.224 86.976 246.72 0 90.592-30.048 175.872-86.944 246.624l-23.2 28.832 57.664 46.336 23.2-28.8c66.592-82.816 103.264-186.848 103.264-292.96 0-107.52-35.712-208.832-103.264-293.024l-23.136-28.832zM491.424 242.368l-52.032 52.576 26.304 26.016c34.208 33.888 53.056 78.976 53.056 127.008s-18.848 93.12-53.056 126.976l-26.304 26.016 52.032 52.576 26.272-25.984c48.384-47.872 75.008-111.648 75.008-179.584s-26.624-131.68-75.008-179.584l-26.272-26.016z" />
<glyph unicode="&#xe90f;" glyph-name="whatsapp" horiz-adv-x="878" d="M562.857 403.429c9.714 0 102.857-48.571 106.857-55.429 1.143-2.857 1.143-6.286 1.143-8.571 0-14.286-4.571-30.286-9.714-43.429-13.143-32-66.286-52.571-98.857-52.571-27.429 0-84 24-108.571 35.429-81.714 37.143-132.571 100.571-181.714 173.143-21.714 32-41.143 71.429-40.571 110.857v4.571c1.143 37.714 14.857 64.571 42.286 90.286 8.571 8 17.714 12.571 29.714 12.571 6.857 0 13.714-1.714 21.143-1.714 15.429 0 18.286-4.571 24-19.429 4-9.714 33.143-87.429 33.143-93.143 0-21.714-39.429-46.286-39.429-59.429 0-2.857 1.143-5.714 2.857-8.571 12.571-26.857 36.571-57.714 58.286-78.286 26.286-25.143 54.286-41.714 86.286-57.714 4-2.286 8-4 12.571-4 17.143 0 45.714 55.429 60.571 55.429zM446.857 100.571c197.714 0 358.857 161.143 358.857 358.857s-161.143 358.857-358.857 358.857-358.857-161.143-358.857-358.857c0-75.429 24-149.143 68.571-210.286l-45.143-133.143 138.286 44c58.286-38.286 127.429-59.429 197.143-59.429zM446.857 890.286c237.714 0 430.857-193.143 430.857-430.857s-193.143-430.857-430.857-430.857c-72.571 0-144.571 18.286-208.571 53.714l-238.286-76.571 77.714 231.429c-40.571 66.857-61.714 144-61.714 222.286 0 237.714 193.143 430.857 430.857 430.857z" />
<glyph unicode="&#xe910;" glyph-name="Community" d="M740.56 650.592c-83.056 0-150.624 67.584-150.624 150.656 0 83.12 67.568 150.752 150.624 150.752 83.136 0 150.784-67.632 150.784-150.752 0-83.072-67.648-150.656-150.784-150.656zM740.56 904c-56.592 0-102.624-46.096-102.624-102.752 0-56.608 46.032-102.656 102.624-102.656 56.672 0 102.784 46.048 102.784 102.656 0 56.656-46.112 102.752-102.784 102.752zM336.304 587.136c-100.544 0-182.336 81.808-182.336 182.368-0.016 100.64 81.776 182.496 182.336 182.496 100.608 0 182.464-81.856 182.464-182.48 0-100.56-81.856-182.384-182.464-182.384zM336.304 904c-74.080 0-134.336-60.336-134.336-134.48 0-74.096 60.272-134.368 134.336-134.368 74.144 0 134.464 60.288 134.464 134.368 0 74.144-60.336 134.48-134.464 134.48zM740.56 622.24c-99.648 0-184.832-62.304-219.2-149.968 0.24-0.192 0.432-0.416 0.672-0.624-50.256 42.352-115.024 68-185.744 68-159.088 0-288.512-129.472-288.512-288.72l1.28-256.96v-49.968c0 0 10.736 0 24 0h527.904c13.248 0 24 0 24 0v192.256h351.264v250.368c0 129.92-105.728 235.616-235.664 235.616zM541.856 453.344c-0.24 0.224-0.416 0.48-0.656 0.704 0.24-0.224 0.432-0.48 0.656-0.704zM576.96-8h-479.904l-1.28 259.056c0 132.656 107.888 240.592 240.512 240.592 132.704 0 240.656-107.92 240.656-240.56v-259.088zM928.224 184.256h-303.264v66.848c0 69.408-24.656 133.136-65.648 182.976 21.088 80.512 94.24 140.176 181.248 140.176 103.472 0 187.664-84.16 187.664-187.616v-202.384z" />
<glyph unicode="&#xe911;" glyph-name="Community_Answer" d="M996 641.744h-159.312v290.256c0 13.264-10.752 24-24 24h-784.688c-13.264 0-24-10.736-24-24v-512.848c0-13.248 10.736-24 24-24h159.28v-290.256c0-13.248 10.736-24 24-24h283.024v-117.664c0-9.696 5.84-18.448 14.816-22.176 2.976-1.232 6.096-1.824 9.184-1.824 6.256 0 12.384 2.432 16.976 7.024l134.624 134.624h326.096c13.248 0 24 10.752 24 24v512.864c0 13.264-10.752 24-24 24zM52 908h736.688v-464.848h-282.976c-13.264 0-24-10.736-24-24v-83.744l-100.784 100.72c-4.512 4.496-10.608 7.024-16.976 7.024h-311.952v464.848zM972 128.912h-312.032c-6.352 0-12.464-2.528-16.976-7.024l-100.688-100.688v83.712c0 13.248-10.752 24-24 24h-283.024v266.24h118.752l134.72-134.624c4.592-4.592 10.736-7.024 16.976-7.024 3.088 0 6.208 0.592 9.184 1.824 8.976 3.712 14.816 12.464 14.816 22.176v117.664h282.976c13.248 0 24 10.752 24 24v174.576h135.312v-464.832z" />
<glyph unicode="&#xe912;" glyph-name="Contactless_Payment" d="M957.776 328.208h-466.48c-32.816 0-59.52-26.656-59.52-59.408v-263.568c0-32.784 26.704-59.44 59.52-59.44h466.48c32.832 0 59.536 26.656 59.536 59.44v263.568c0 32.752-26.704 59.408-59.536 59.408zM491.296 280.208h466.48c6.256 0 11.536-5.216 11.536-11.408v-42.016h-489.536v42.016c0 6.192 5.28 11.408 11.52 11.408zM957.776-6.208h-466.48c-6.24 0-11.52 5.232-11.52 11.44v131.088h489.536v-131.072c0-6.224-5.28-11.456-11.536-11.456zM321.232 273.808c-4.848 0-9.712 1.456-13.936 4.48-10.784 7.696-13.28 22.688-5.568 33.472 52.576 73.552 80.368 160.208 80.368 250.608 0 90.448-27.792 177.104-80.368 250.608-7.712 10.784-5.232 25.776 5.552 33.488s25.776 5.232 33.488-5.552c58.448-81.696 89.344-178.016 89.344-278.544 0-100.48-30.896-196.8-89.344-278.512-4.672-6.56-12.048-10.048-19.536-10.048zM224.848 334.704c-4.992 0-10 1.552-14.32 4.736-10.624 7.92-12.848 22.96-4.944 33.6 41.008 55.136 62.688 120.608 62.688 189.344 0 68.752-21.664 134.224-62.672 189.328-7.92 10.64-5.696 25.664 4.928 33.584s25.68 5.696 33.584-4.928c47.216-63.456 72.176-138.832 72.176-217.984 0-79.12-24.96-154.496-72.16-218-4.72-6.336-11.952-9.68-19.28-9.68zM128.144 395.808c-5.264 0-10.56 1.712-14.992 5.264-10.336 8.288-12.016 23.392-3.728 33.728 29.408 36.704 44.944 80.816 44.944 127.568 0 46.768-15.536 90.848-44.928 127.44-8.304 10.336-6.64 25.456 3.68 33.744 10.368 8.288 25.44 6.624 33.744-3.68 35.776-44.576 55.488-100.512 55.488-157.504 0-57.76-19.184-112.256-55.472-157.568-4.72-5.904-11.712-8.992-18.736-8.992zM30.688 457.44c-6.192 0-12.368 2.368-17.072 7.12-9.312 9.44-9.216 24.624 0.208 33.952 17.216 16.992 26.704 39.68 26.704 63.856 0 24.112-9.504 46.832-26.736 63.952-9.408 9.344-9.472 24.544-0.128 33.936 9.328 9.424 24.544 9.456 33.936 0.128 26.384-26.208 40.928-61.008 40.928-98.016 0-37.104-14.544-71.904-40.96-98.016-4.688-4.608-10.784-6.912-16.88-6.912z" />
<glyph unicode="&#xe913;" glyph-name="Diagram" d="M937.088-5.696v736.592c0 13.264-10.736 24-24 24h-183.936c-13.264 0-24-10.736-24-24v-736.592h-66.096v543.936c0 13.248-10.736 24-24 24h-183.92c-13.264 0-24-10.752-24-24v-543.952h-66.064v259.984c0 13.248-10.736 24-24 24h-183.92c-13.264 0-24-10.752-24-24v-259.968h-100.64v-48h1006.992v48h-78.416zM753.152 706.896h135.936v-712.592h-135.936v712.592zM455.136 514.24h135.936v-519.952h-135.936v519.952zM157.152 230.272h135.92v-235.968h-135.92v235.968z" />
<glyph unicode="&#xe914;" glyph-name="Different_Profession_Banker" d="M328.656 360.176c72.016 0 130.608 58.592 130.608 130.608 0 72-58.592 130.56-130.608 130.56-71.968 0-130.528-58.56-130.528-130.56 0-72.016 58.56-130.608 130.528-130.608zM328.656 573.344c45.552 0 82.608-37.024 82.608-82.56 0-45.552-37.056-82.608-82.608-82.608-45.52 0-82.528 37.056-82.528 82.608 0 45.536 37.008 82.56 82.528 82.56zM328.656 339.952c-106.704 0-193.504-86.8-193.504-193.632l0.016-181.248c0-13.248 10.752-24 24-24h339.024c13.248 0 24 10.752 24 24v181.376c0.016 106.704-86.816 193.504-193.536 193.504zM474.208-10.928h-291.056v157.376c0 70.88 50.96 129.984 118.144 142.832l-23.328-180.784c-0.352-2.832 0.768-5.648 2.992-7.424l42.624-34.336c1.504-1.216 3.328-1.808 5.136-1.808 1.824 0 3.648 0.592 5.136 1.808l42.576 34.336c2.224 1.776 3.344 4.592 2.992 7.424l-23.264 180.768c67.136-12.896 118.048-71.984 118.048-142.816v-157.376zM833.584 953.872h-368.976c-31.056 0-56.336-25.264-56.336-56.336v-218.768c0-31.056 25.264-56.336 56.336-56.336h114.464v-54.288c0-9.696 5.84-18.448 14.816-22.176 2.976-1.232 6.096-1.824 9.184-1.824 6.24 0 12.368 2.432 16.976 7.024l71.264 71.248h142.272c31.056 0 56.336 25.264 56.336 56.336v218.8c-0.016 31.056-25.28 56.32-56.336 56.32zM841.904 678.784c0-4.512-3.808-8.336-8.336-8.336h-152.208c-6.352 0-12.464-2.528-16.976-7.024l-37.328-37.312v20.336c0 13.248-10.752 24-24 24h-138.48c-4.512 0-8.336 3.808-8.336 8.336v218.768c0 4.512 3.808 8.336 8.336 8.336h368.976c4.512 0 8.336-3.808 8.336-8.336v-218.768zM631.040 814.624v-2.352h30.784v-48h-30.784v-2.32c0-13.616 11.024-24.688 24.592-24.688 13.552 0 24.56 11.072 24.56 24.688h48c0-40.080-32.544-72.688-72.56-72.688-40.032 0-72.592 32.608-72.592 72.688v2.32h-17.12v48h17.12v2.352c0 40.096 32.56 72.704 72.592 72.704 40.016 0 72.56-32.608 72.56-72.704h-48c0 13.632-11.008 24.704-24.56 24.704s-24.592-11.072-24.592-24.704z" />
<glyph unicode="&#xe915;" glyph-name="Down_Up" d="M323.216 33.984v550.304h-47.904v-550.272l-225.424 225.568-33.888-33.888 266.32-266.464c4.496-4.48 10.576-7.008 16.928-7.008 0 0 0 0 0 0 6.352 0 12.448 2.528 16.944 7.008l269.888 269.76-33.872 33.872-228.992-228.88zM1008 670.304l-266.336 266.448c-4.48 4.496-10.56 7.024-16.944 7.024-6.336 0-12.432-2.528-16.944-7.008l-269.84-269.76 33.872-33.888 228.96 228.88v-550.272h47.904v550.256l225.456-225.552 33.872 33.872z" />
<glyph unicode="&#xe916;" glyph-name="Infographic_Government_Help" d="M24.192 444.752h230.768c-6.192-22.512-9.76-46.096-9.76-70.544 0-90.272 45.136-170.048 113.92-218.352v-171.856h-209.76v388.752h-48v-388.752h-55.936v-48h933.104v48h-55.968v388.752h-48v-388.752h-209.712v171.872c68.784 48.32 113.904 128.096 113.904 218.336 0 24.448-3.568 48.032-9.744 70.544h230.784v42.096l24.784 30.592-465.6 376.576c-25.904 20.976-66.608 21.040-92.672 0.016l-466.864-377.872 24.752-30.592v-40.816zM616.848-16h-209.728v144.912c32.208-13.824 67.632-21.536 104.832-21.536 37.248 0 72.672 7.712 104.896 21.568v-144.944zM511.952 155.376c-120.624 0-218.752 98.176-218.752 218.832s98.128 218.832 218.752 218.832c120.656 0 218.8-98.176 218.8-218.832s-98.16-218.832-218.8-218.832zM496.432 856.672c8.368 6.72 24.080 6.736 32.32 0.048l450-363.968h-228.128c-43.744 87.728-134.16 148.288-238.672 148.288-104.48 0-194.896-60.544-238.624-148.288h-226.528l449.632 363.92zM518.384 476.32c31.872 0 57.808-25.92 57.808-57.776h48c0 58.336-47.472 105.776-105.808 105.776s-105.76-47.456-105.76-105.776v-20.336h-45.136v-48h45.136v-20.352c0-58.336 47.44-105.776 105.76-105.776 58.336 0 105.808 47.456 105.808 105.776h-48c0-31.856-25.936-57.776-57.808-57.776-31.856 0-57.76 25.92-57.76 57.776v20.352h68.096v48h-68.096v20.336c0 31.84 25.904 57.776 57.76 57.776z" />
<glyph unicode="&#xe917;" glyph-name="Infographic_Lender_Take_The_Property" d="M941.088 627.104l-391.184 316.416c-22.336 18.080-60.24 18.144-82.688 0l-392.24-317.472c-18.128-14.592-30.304-40.176-30.304-63.68v-559.344c0-33.904 27.52-61.472 61.344-61.472h804.048c33.792 0 61.296 27.568 61.296 61.472v560.48c0 23.312-12.144 48.832-30.272 63.6zM923.36 3.024c0-7.44-5.984-13.472-13.296-13.472h-804.048c-7.36 0-13.344 6.032-13.344 13.472v559.344c0 8.848 5.68 20.88 12.448 26.336l392.256 317.472c2.608 2.112 6.8 3.376 11.216 3.376 4.352 0 8.496-1.248 11.104-3.344l391.136-316.368c6.784-5.536 12.512-17.6 12.512-26.336v-560.48zM637.872 436.752h-29.872v135.184c0 54.544-44.336 98.912-98.848 98.912-54.528 0-98.912-44.384-98.912-98.848v-135.248h-32.080c-32.784 0-59.456-26.656-59.456-59.44v-219.472c0-32.784 26.672-59.44 59.456-59.44h259.696c32.784 0 59.44 26.656 59.44 59.44v219.472c0.016 32.784-26.64 59.44-59.424 59.44zM458.256 571.904c0 28.096 22.848 50.944 50.912 50.944 28.032 0 50.848-22.848 50.848-50.912v-135.184h-101.744v135.152zM649.312 157.84c0-6.32-5.12-11.44-11.44-11.44h-259.696c-6.32 0-11.456 5.12-11.456 11.44v219.472c0 6.32 5.136 11.44 11.456 11.44h259.696c6.32 0 11.44-5.12 11.44-11.44v-219.472z" />
<glyph unicode="&#xe918;" glyph-name="Infographic_Shareholders_Equitity" d="M855.712 787.024c46.704 0 84.688 37.968 84.688 84.64s-37.984 84.656-84.688 84.656c-46.688 0-84.672-37.984-84.672-84.656s37.984-84.64 84.672-84.64zM855.712 908.336c20.224 0 36.688-16.432 36.688-36.656 0-20.208-16.464-36.64-36.688-36.64s-36.672 16.432-36.672 36.64c0 20.208 16.464 36.656 36.672 36.656zM892.144 288.4h48v-348.72h-48v348.72zM855.712 759.712c-66.192 0-122.64-41.728-144.896-100.192-48.448 34.512-107.536 55.040-171.424 55.040-67.44 0-129.52-22.912-179.376-60.992-17.616 62-74.704 105.808-140.16 105.808-69.568 0-129.728-49.536-143.12-118.080l-64.16-353.088h48.784l62.528 344.192c8.96 45.76 49.312 78.992 95.968 78.992 46.688 0 87.024-33.2 95.888-78.736l3.152-17.088c-47.024-52.464-75.904-121.536-75.904-197.376 0-46.656 11.12-90.672 30.416-129.968h-17.12v-348.544h48v298.72c54.224-70.72 139.28-116.608 235.088-116.608 94.256 0 178.16 44.352 232.464 113.136v-295.248h48v348.72h-14.416c19.216 39.264 30.336 83.2 30.336 129.776 0 80.752-32.544 153.984-85.088 207.488 9.824 49.008 53.168 86.048 105.024 86.048 59.072 0 107.136-48.064 107.136-107.152v-316.16h48v316.16c0.032 85.552-69.568 155.152-155.12 155.152zM787.776 418.192c0-136.976-111.408-248.384-248.368-248.384s-248.384 111.424-248.384 248.384 111.44 248.384 248.384 248.384c61.568 0 117.84-22.64 161.28-59.856-0.016-0.72-0.112-1.424-0.112-2.16h2.48c51.808-45.552 84.72-112.128 84.72-186.368zM136.080 288.224h48v-348.544h-48v348.544zM108.016 812.272c0 18.016 13.728 32.72 31.248 34.64 10.544-34.736 42.496-60.272 80.608-60.272 46.688 0 84.672 37.984 84.672 84.656 0 46.64-37.984 84.592-84.672 84.592-38.384 0-70.544-25.888-80.848-60.992-43.904-2.16-79.008-38.24-79.008-82.624v-50.192h48v50.192zM219.872 907.888c20.24 0 36.672-16.416 36.672-36.592 0-20.224-16.432-36.656-36.672-36.656-20.192 0-36.608 16.432-36.608 36.656 0 20.176 16.416 36.592 36.608 36.592zM552.96 568.816c49.168 0 89.184-40.016 89.184-89.2h48c0 75.664-61.552 137.2-137.184 137.2-74.352 0-134.928-59.424-137.056-133.216h-42.288v-48h42.080v-34.864h-42.080v-48h42.288c2.176-73.792 62.736-133.2 137.056-133.2 75.648 0 137.184 61.568 137.184 137.232h-48c0-49.2-40.016-89.232-89.184-89.232-47.856 0-86.928 37.872-89.056 85.2h103.344v48h-103.568v34.864h103.552v48h-103.344c2.112 47.328 41.184 85.216 89.072 85.216z" />
<glyph unicode="&#xe919;" glyph-name="Infographic_Switch_To_A_Different_Mortgage" d="M818.496 322.112h157.632c4.064 0 7.344 3.264 7.344 7.328v109.872c0 3.152-1.776 6.832-4.192 8.816l-76.72 62.048c-2.816 2.256-7.472 2.256-10.288 0l-76.944-62.272c-2.432-1.952-4.224-5.664-4.224-8.816v-109.664c0.016-4.048 3.328-7.312 7.392-7.312zM47.808 432.336h157.664c4.064 0 7.328 3.312 7.328 7.344v109.888c0 3.152-1.776 6.832-4.224 8.816l-76.688 62.032c-2.8 2.256-7.456 2.256-10.32 0l-76.896-62.24c-2.432-1.968-4.192-5.696-4.192-8.832v-109.664c0-4.032 3.312-7.344 7.328-7.344zM1017.408 283.2h-240.16v-48h96.064v-42.272c0-14.544-15.568-26.848-34-26.848h-303.312v84.4h72.592c10.688 0 20.096 7.088 23.024 17.376l153.024 533.392c3.6 12.512-3.472 25.616-15.872 29.52-165.632 52.064-347.888 52.064-513.6 0-12.432-3.888-19.472-16.992-15.872-29.52l153.024-533.392c2.976-10.288 12.368-17.376 23.072-17.376h72.608v-84.4h-303.376c-18.72 0-33.968 15.248-33.968 33.984v148.624h96.064v48h-240.128v-48h96.064v-148.624c0-45.2 36.784-81.984 81.968-81.984h654.688c45.216 0 82 33.584 82 74.848v42.272h96.096v48zM731.968 791.68l-33.088-115.328c-25.152 7.040-50.72 12.624-76.496 16.752l13.712 66.288-47.008 9.744-14.496-70.096c-83.68 7.52-168.64-0.032-249.504-22.704l-33.088 115.344c142.608 40.256 297.408 40.288 439.968 0zM338.32 630.224c112.832 31.6 234.304 31.632 347.328 0l-95.152-331.712h-157.008l-95.168 331.712zM340.144 79.456h342.448v-48h-342.448v48z" />
<glyph unicode="&#xe91a;" glyph-name="Internet_Banking" d="M994.704 803.696h-965.424c-13.264 0-24-10.736-24-24v-687.376c0-13.248 10.736-24 24-24h965.424c13.264 0 24 10.752 24 24v687.376c0 13.264-10.736 24-24 24zM970.704 116.32h-917.424v639.376h917.424v-639.376zM615.008 33.376h-205.952v-43.84h-154.464v-48h514.912v48h-154.496zM362.672 352.368c0-93.504 76.096-169.568 169.632-169.568 93.472 0 169.536 76.064 169.536 169.568h-48c0-67.024-54.528-121.568-121.536-121.568-67.072 0-121.632 54.528-121.632 121.568v1.712h139.984v48h-139.984v58.528h139.984v48h-139.984v1.728c0 67.024 54.56 121.568 121.632 121.568 67.008 0 121.536-54.528 121.536-121.568h48c0 93.504-76.064 169.568-169.536 169.568-93.536 0-169.632-76.064-169.632-169.568v-1.728h-60.976v-48h60.976v-58.528h-60.976v-48h60.976v-1.712z" />
<glyph unicode="&#xe91b;" glyph-name="Manager" d="M511.936 587.136c100.608 0 182.464 81.808 182.464 182.368 0 100.64-81.856 182.496-182.464 182.496-100.544 0-182.352-81.856-182.352-182.48 0-100.56 81.808-182.384 182.352-182.384zM511.936 904c74.144 0 134.464-60.336 134.464-134.48 0-74.096-60.336-134.368-134.464-134.368-74.080 0-134.352 60.288-134.352 134.368 0 74.144 60.272 134.48 134.352 134.48zM511.936 539.664c-159.088 0-288.528-129.472-288.528-288.72l-0.032-306.944h577.216v307.088c0 159.12-129.488 288.576-288.656 288.576zM752.592-8h-481.216l0.032 259.056c0 124.784 95.488 227.648 217.216 239.408l-41.824-324.384 65.184-52.528 65.216 52.528-41.824 324.368c121.728-11.824 217.216-114.64 217.216-239.376v-259.072z" />
<glyph unicode="&#xe91c;" glyph-name="Mobile_Payment" d="M1003.904 692.464c-0.016 6.368-2.544 12.464-7.040 16.976-4.496 4.496-10.592 7.008-16.96 7.008-0.016 0-0.016 0-0.016 0l-359.312 0.096v156.864c0 45.456-36.992 82.432-82.432 82.432h-435.824c-45.456 0-82.432-36.992-82.432-82.432v-850.288c0-45.456 36.992-82.432 82.432-82.432h435.824c45.456 0 82.432 36.992 82.432 82.432v295.024l359.584-0.144c13.264 0 23.984 10.752 23.984 24l-0.24 350.464zM572.576 23.12c0-19.008-15.44-34.432-34.432-34.432h-435.824c-18.992 0-34.432 15.44-34.432 34.432v850.288c0 18.992 15.44 34.432 34.432 34.432h435.824c19.008 0 34.432-15.44 34.432-34.432v-156.848h-35.344v48.736c0 26.064-21.2 47.264-47.248 47.264h-339.52c-26.048 0-47.264-21.2-47.264-47.264v-493.824c0-26.064 21.2-47.264 47.264-47.264h339.52c26.048 0 47.248 21.2 47.248 47.264v46.72l35.344-0.032v-295.040zM288.976 342.256c0-6.352 2.544-12.464 7.040-16.976 4.512-4.48 10.768-7.008 17.12-7.008 0 0 0.016 0 0.016 0l176.096-0.080v-46.832l-338.864 0.112 0.080 493.088 338.768 0.736v-48.72l-176.4 0.048c-6.368 0-12.464-2.544-16.976-7.040-4.496-4.512-7.024-10.624-7.008-16.976l0.128-350.352zM336.96 366.288l-0.080 302.352 619.040-0.048 0.208-301.792-619.168-0.512zM320.208 193.712c-44.8 0-81.248-36.464-81.248-81.28 0-44.848 36.448-81.312 81.248-81.312 44.832 0 81.312 36.464 81.312 81.312 0 44.816-36.48 81.28-81.312 81.28zM320.208 79.12c-18.336 0-33.248 14.944-33.248 33.312 0 18.336 14.912 33.28 33.248 33.28 18.368 0 33.312-14.944 33.312-33.28 0-18.368-14.944-33.312-33.312-33.312zM268 880.432h104.464v-48h-104.464v48zM650.96 595.12c0.016 0 0.032 0 0.032 0 22.4 0 40.624-18.288 40.656-40.768l48 0.048c-0.064 48.944-39.808 88.72-88.624 88.72-0.032 0-0.064 0-0.080 0-48.896 0-88.672-39.808-88.672-88.736v-11.008h-30.736v-48h30.736v-11.12c0-48.88 39.76-88.72 88.672-88.784 48.912 0 88.704 39.824 88.704 88.784h-48c0-22.48-18.272-40.768-40.672-40.768-22.448 0.032-40.704 18.32-40.704 40.768v11.12h48.928v48h-48.944v11.008c0.016 22.464 18.256 40.736 40.704 40.736z" />
<glyph unicode="&#xe91d;" glyph-name="Mortgage" d="M659.712 267.728h48c0-99.008-80.528-179.584-179.52-179.584-99.040 0-179.632 80.56-179.632 179.584v3.472h-66.8v48h66.8v65.84h-66.8v48h66.8v3.504c0 99.008 80.592 179.552 179.632 179.552 98.992 0 179.52-80.544 179.52-179.552h-48c0 72.544-59.008 131.552-131.52 131.552-72.592 0-131.632-59.008-131.632-131.552v-3.504h151.264v-48h-151.264v-65.84h151.264v-48h-151.264v-3.472c0-72.544 59.040-131.584 131.632-131.584 72.528 0.016 131.52 59.040 131.52 131.584zM972 30.976v523.744c0 31.36-15.744 64.368-40.128 84.080l-365.44 295.68c-15.696 12.672-36.496 19.664-58.576 19.664-22.064 0-42.864-6.992-58.576-19.664l-366.56-296.656c-24.352-19.648-40.080-52.672-40.080-84.16v-522.688c0-49.136 39.936-89.12 89.008-89.12h751.344c49.104-0.016 89.008 39.968 89.008 89.12zM536.256 897.168l365.44-295.68c13.136-10.624 22.32-29.856 22.32-46.768v-523.744c0-22.672-18.368-41.12-40.992-41.12h-751.36c-22.624 0-41.008 18.448-41.008 41.12v522.688c0 16.992 9.136 36.24 22.256 46.816l366.56 296.672c7.072 5.712 17.424 8.992 28.384 8.992 10.992 0 21.328-3.28 28.4-8.976z" />
<glyph unicode="&#xe91e;" glyph-name="My_Quicklinks" d="M860.192 65.152c0-42.512-34.592-77.104-77.104-77.104h-653.92c-42.512 0-77.104 34.592-77.104 77.104v653.936c0 42.512 34.592 77.104 77.104 77.104h110.672v48h-110.672c-68.992 0-125.104-56.128-125.104-125.104v-653.936c0-68.992 56.128-125.104 125.104-125.104h653.904c68.992 0 125.104 56.128 125.104 125.104v110.656h-48v-110.656zM995.936 955.952h-635.264v-48h577.296l-732.096-732.144 33.936-33.936 732.128 732.16v-568.128h48v626.048c0 13.264-10.752 24-24 24z" />
<glyph unicode="&#xe91f;" glyph-name="Note" d="M782.368-56h-540.752c-47.232 0-85.664 38.432-85.664 85.664v836.672c0 47.232 38.432 85.664 85.664 85.664h540.752c47.232 0 85.664-38.432 85.664-85.664v-836.672c0.016-47.232-38.416-85.664-85.664-85.664zM241.616 904c-20.768 0-37.664-16.896-37.664-37.664v-836.672c0-20.768 16.896-37.664 37.664-37.664h540.752c20.768 0 37.664 16.912 37.664 37.664v836.672c0 20.768-16.912 37.664-37.664 37.664h-540.752zM736 704h-464v-48h464v48zM736 464h-464v-48h464v48zM736 224h-464v-48h464v48z" />
<glyph unicode="&#xe920;" glyph-name="Others_Bank_Card" d="M941.136 649.536h-54.336v87.152c0 45.712-37.056 82.88-82.752 82.88h-721.232c-45.664 0-82.816-37.168-82.816-82.88v-407.312c0-45.744 37.152-82.88 82.816-82.88h54.304v-87.248c0-45.632 37.12-82.816 82.816-82.816h721.2c45.728 0 82.864 37.184 82.864 82.816v407.408c0 45.68-37.12 82.88-82.864 82.88zM941.136 593.52c14.8 0 26.864-12.048 26.864-26.864v-32.624h-81.184v59.488h54.32zM82.816 763.568h721.248c14.752 0 26.752-12.064 26.752-26.88v-32.624h-774.848v32.624c0 14.816 12.064 26.88 26.848 26.88zM55.968 329.376v234.816h774.848v-234.816c0-14.88-12-26.88-26.752-26.88h-721.248c-14.784 0-26.848 12-26.848 26.88zM941.136 132.432h-721.2c-14.768 0-26.8 12-26.8 26.816v87.248h610.928c45.68 0 82.752 37.12 82.752 82.88v64.784h81.184v-234.912c0-14.816-12.064-26.816-26.864-26.816z" />
<glyph unicode="&#xe921;" glyph-name="Others_Chat" d="M934.496 645.632h-92.128v227.776c0 47.744-38.88 86.592-86.624 86.592h-666.24c-47.76 0-86.624-38.848-86.624-86.592v-395.056c0-47.744 38.88-86.592 86.624-86.592h92.128v-227.76c0-47.744 38.816-86.624 86.56-86.624h221.872v-113.12c0-11.44 6.88-21.744 17.376-26.128 3.504-1.376 7.184-2.128 10.816-2.128 7.376 0 14.56 2.88 19.936 8.256l133.184 133.12h263.12c47.744 0 86.624 38.88 86.624 86.624v395.024c0 47.76-38.864 86.608-86.624 86.608zM59.312 478.336v395.072c0 16.624 13.504 30.16 30.192 30.16h666.256c16.624 0 30.192-13.536 30.192-30.16v-395.056c0-16.624-13.568-30.16-30.192-30.16h-250.080c-15.568 0-28.192-12.624-28.192-28.224v-73.216l-93.248 93.184c-5.312 5.28-12.496 8.256-19.936 8.256h-274.8c-16.688 0-30.192 13.52-30.192 30.144zM964.688 164c0-16.624-13.568-30.192-30.192-30.192h-274.816c-7.504 0-14.688-2.944-20-8.256l-93.184-93.184v73.248c0 15.568-12.624 28.192-28.256 28.192h-250.048c-16.624 0-30.128 13.568-30.128 30.192v227.744h114.56l133.12-133.12c5.376-5.376 12.624-8.256 19.936-8.256 3.632 0 7.312 0.688 10.816 2.128 10.56 4.368 17.44 14.624 17.44 26.128v113.12h221.808c47.744 0 86.624 38.848 86.624 86.592v110.848h92.128c16.624 0 30.192-13.536 30.192-30.16v-395.024z" />
<glyph unicode="&#xe922;" glyph-name="Others_Indexes" d="M890.256 684.464c0 7.344-2.624 14.528-8 19.936l-247.248 247.344c-5.376 5.376-12.624 8-20 8v0.256h-421.264c-33.248 0-60.256-27.024-60.256-60.256v-903.504c0-33.248 27.008-60.256 60.256-60.256h636.496c33.248 0 60.256 27.008 60.256 60.256v688.224h-0.24zM643.248 863.664l150.944-150.976h-150.944v150.976zM830.256-7.568h-636.512c-2 0-3.808 1.808-3.808 3.808v903.504c0 2.032 1.808 3.808 3.808 3.808h392.992v-219.088c0-15.6 12.624-28.224 28.256-28.224h219.12v-660c0.016-1.984-1.792-3.808-3.856-3.808zM272.432 441.568h56.448v56.432h-57.376zM272.432 249.248h56.448v56.496h-57.376zM367.744 498h384.752v-56.432h-384.752v56.432zM367.744 305.744h384.752v-56.496h-384.752v56.496zM367.744 401.872h384.752v-56.432h-384.752v56.432zM367.744 209.632h384.752v-56.496h-384.752v56.496z" />
<glyph unicode="&#xe923;" glyph-name="Others_Service_Desk" d="M511.936 582.32c94.128 0 170.624 76.496 170.624 170.528 0 94.128-76.496 170.688-170.624 170.688-94.032 0-170.528-76.56-170.528-170.688 0-94.032 76.496-170.528 170.528-170.528zM511.936 866.688c62.752 0 113.808-51.056 113.808-113.84 0-62.688-51.056-113.712-113.808-113.712-62.688 0-113.68 51.024-113.68 113.712 0 62.784 50.992 113.84 113.68 113.84zM937.056 128.624h-170.432v164.88c0 140.336-114.32 254.56-254.688 254.56s-254.56-114.224-254.56-254.688l0.192-164.752h-170.656c-47.904 0-86.912-38.992-86.912-86.992v-105.632h56.848v105.632c0 16.624 13.504 30 30.064 30h850.16c16.56 0 30.064-13.376 30.064-30v-105.632h56.864v105.632c0 48-39.008 86.992-86.944 86.992zM314.224 293.504c0 101.28 76.624 184.944 174.88 196.32l-34-263.68 56.848-45.872 56.848 45.872-34 263.68c98.336-11.376 174.976-95.024 174.976-196.32v-164.88h-395.376l-0.176 164.88z" />
<glyph unicode="&#xe924;" glyph-name="Person" d="M511.936 587.136c-100.544 0-182.352 81.808-182.352 182.368 0 100.624 81.808 182.48 182.352 182.48 100.608 0.016 182.464-81.84 182.464-182.464 0-100.56-81.856-182.384-182.464-182.384zM511.936 904c-74.080 0-134.352-60.336-134.352-134.48 0-74.096 60.272-134.368 134.352-134.368 74.144 0 134.464 60.288 134.464 134.368 0 74.144-60.32 134.48-134.464 134.48zM776.592-56h-527.904c-13.264 0-24 10.752-24 24v25.984l-1.28 256.96c0 159.248 129.424 288.72 288.528 288.72 159.168 0 288.656-129.456 288.656-288.56v-283.104c0-13.248-10.752-24-24-24zM272.688-8h479.904v259.088c0 132.64-107.952 240.56-240.656 240.56-132.624 0-240.528-107.936-240.528-240.592l1.28-259.056z" />
<glyph unicode="&#xe925;" glyph-name="Screen" d="M929.44 845.2h-834.88c-47.728 0-86.56-38.832-86.56-86.56v-500.176c0-47.712 38.832-86.56 86.56-86.56h385.44v-73.088h-224c-13.264 0-24-10.752-24-24s10.736-24 24-24h496c13.248 0 24 10.752 24 24s-10.752 24-24 24h-224v73.088h401.44c47.728 0 86.56 38.848 86.56 86.56v500.176c0 47.728-38.832 86.56-86.56 86.56zM968 258.464c0-21.248-17.296-38.56-38.56-38.56h-834.88c-21.264 0-38.56 17.312-38.56 38.56v500.176c0 21.264 17.296 38.56 38.56 38.56h834.88c21.264 0 38.56-17.296 38.56-38.56v-500.176zM876.304 731.008h-728.608c-13.264 0-24-10.736-24-24v-395.984c0-13.248 10.736-24 24-24h728.592c13.248 0 24 10.752 24 24v395.984c0.016 13.264-10.736 24-23.984 24zM852.304 335.024h-680.608v347.984h680.592v-347.984zM512 276.992c-13.248 0-24-10.784-24-24.032s10.768-24 24-24 24.016 10.752 24.016 24-10.768 24.032-24.016 24.032z" />
<glyph unicode="&#xe926;" glyph-name="Shopping_Bag" d="M899.504 602.752h-136.32l-0.064 139.376c0.256 3.344 3.744 83.184-55.68 145.936-44.56 47.008-111.184 71.088-197.904 71.808v0.128c-0.688 0-1.28-0.064-1.968-0.064-0.656 0-1.248 0.064-1.936 0.064v-0.128c-86.688-0.72-153.312-24.816-197.872-71.808-59.504-62.752-55.936-142.592-55.776-144.432v-140.88h-127.52c-25.904 0-46.976-21.056-46.976-47.008v-424.944c0.016-1.92 2.32-194.8 200.944-194.8h467.056c198.688 0 200.992 192.88 200.992 194.816v424.928c0.016 25.936-21.040 47.008-46.976 47.008zM308.912 745.152c-0.032 0.592-1.904 59.248 40.224 103.68 33.712 35.632 87.056 53.776 158.464 54.128 71.024-0.336 124.16-18.336 157.904-53.568 42.752-44.592 40.752-103.808 40.688-105.776v-140.88h-397.248l-0.032 142.416zM889.504 130.88c-0.128-14.128-5.12-137.872-144-137.872h-467.072c-138.816 0-143.84 123.744-143.936 137.808v414.928h117.472v-85.6h56.976v85.6h397.248v-85.6h56.992v85.6h126.32v-414.864z" />
</font>
</defs>
</svg>
